<?xml version="1.0" encoding="utf-8"?>
<!-- Generator: Adobe Illustrator 17.1.0, SVG Export Plug-In . SVG Version: 6.00 Build 0)  -->
<!DOCTYPE svg PUBLIC "-//W3C//DTD SVG 1.1//EN" "http://www.w3.org/Graphics/SVG/1.1/DTD/svg11.dtd">
<svg version="1.1" xmlns="http://www.w3.org/2000/svg" xmlns:xlink="http://www.w3.org/1999/xlink" x="0px" y="0px" width="48px"
	 height="48px" viewBox="0 0 48 48" enable-background="new 0 0 48 48" xml:space="preserve">
<g id="Header">
	<g>
		<rect x="-838" y="-568" fill="none" width="1400" height="3600"/>
	</g>
</g>
<g id="Labels">
</g>
<g id="Icon">
	<g>
		<rect x="0" fill="none" width="48" height="48"/>
		<path d="M24,18c-3.2,0-6.3,0.5-9.2,1.4l0,6.2c0,0.8-0.5,1.5-1.1,1.8c-2,1-3.7,2.2-5.3,3.7C8,31.5,7.5,31.7,7,31.7
			c-0.6,0-1.1-0.2-1.4-0.6l-5-5C0.2,25.8,0,25.3,0,24.8c0-0.6,0.2-1.1,0.6-1.4C6.7,17.6,14.9,14,24,14s17.3,3.6,23.4,9.3
			c0.4,0.4,0.6,0.9,0.6,1.4c0,0.6-0.2,1.1-0.6,1.4l-5,5c-0.4,0.4-0.9,0.6-1.4,0.6c-0.5,0-1-0.2-1.4-0.6c-1.6-1.5-3.4-2.7-5.3-3.7
			c-0.7-0.3-1.1-1-1.1-1.8l0-6.2C30.3,18.5,27.2,18,24,18z"/>
	</g>
</g>
<g id="Grid" display="none">
	<g display="inline">
		<line fill="none" stroke="#00E5FF" stroke-width="0.1" stroke-miterlimit="10" x1="42" y1="-568" x2="42" y2="2984"/>
	</g>
</g>
</svg>
