<?xml version="1.0" encoding="utf-8"?>
<!-- Generator: Adobe Illustrator 17.1.0, SVG Export Plug-In . SVG Version: 6.00 Build 0)  -->
<!DOCTYPE svg PUBLIC "-//W3C//DTD SVG 1.1//EN" "http://www.w3.org/Graphics/SVG/1.1/DTD/svg11.dtd">
<svg version="1.1" xmlns="http://www.w3.org/2000/svg" xmlns:xlink="http://www.w3.org/1999/xlink" x="0px" y="0px" width="48px"
	 height="48px" viewBox="0 0 48 48" enable-background="new 0 0 48 48" xml:space="preserve">
<g id="Header">
	<g>
		<rect x="-838" y="-824" fill="none" width="1400" height="3600"/>
	</g>
</g>
<g id="Label">
</g>
<g id="Icon">
	<g>
		<rect fill="none" width="48" height="48"/>
		<path d="M24,4C13,4,4,13,4,24c0,11,9,20,20,20c11,0,20-9,20-20C44,13,35,4,24,4z M24,40c-8.8,0-16-7.2-16-16
			c0-3.7,1.3-7.1,3.4-9.8l22.4,22.4C31.1,38.7,27.7,40,24,40z M36.6,33.8L14.2,11.4C16.9,9.3,20.3,8,24,8c8.8,0,16,7.2,16,16
			C40,27.7,38.7,31.1,36.6,33.8z"/>
	</g>
</g>
<g id="Grid" display="none">
	<g display="inline">
		<line fill="none" stroke="#00E5FF" stroke-width="0.1" stroke-miterlimit="10" x1="42" y1="-824" x2="42" y2="2728"/>
	</g>
</g>
</svg>
