<?xml version="1.0" encoding="utf-8"?>
<!-- Generator: Adobe Illustrator 17.1.0, SVG Export Plug-In . SVG Version: 6.00 Build 0)  -->
<!DOCTYPE svg PUBLIC "-//W3C//DTD SVG 1.1//EN" "http://www.w3.org/Graphics/SVG/1.1/DTD/svg11.dtd">
<svg version="1.1" xmlns="http://www.w3.org/2000/svg" xmlns:xlink="http://www.w3.org/1999/xlink" x="0px" y="0px" width="24px"
	 height="24px" viewBox="0 0 24 24" enable-background="new 0 0 24 24" xml:space="preserve">
<g id="Header">
	<g>
		<rect x="-618" y="-2488" fill="none" width="1400" height="3600"/>
	</g>
</g>
<g id="Labels">
</g>
<g id="Icon">
	<g>
		<rect x="0" fill="none" width="24" height="24"/>
		<path d="M20,4H7.8l4,4H14v2.2l0.6,0.6L18,8v6.2l4,4c0-0.1,0-0.1,0-0.2V6C22,4.9,21.1,4,20,4z M2.3,1L1,2.3l2,2C2.4,4.6,2,5.3,2,6
			v12c0,1.1,0.9,2,2,2h14.7l2,2l1.3-1.3L2.3,1z M6,8h0.7l7.3,7.3V16H6V8z"/>
	</g>
</g>
<g id="Grid" display="none">
	<g display="inline">
	</g>
</g>
</svg>
