<?xml version="1.0" encoding="utf-8"?>
<!-- Generator: Adobe Illustrator 17.1.0, SVG Export Plug-In . SVG Version: 6.00 Build 0)  -->
<!DOCTYPE svg PUBLIC "-//W3C//DTD SVG 1.1//EN" "http://www.w3.org/Graphics/SVG/1.1/DTD/svg11.dtd">
<svg version="1.1" xmlns="http://www.w3.org/2000/svg" xmlns:xlink="http://www.w3.org/1999/xlink" x="0px" y="0px" width="48px"
	 height="48px" viewBox="0 0 48 48" enable-background="new 0 0 48 48" xml:space="preserve">
<g id="Header">
	<g>
		<rect x="-838" y="-2488" fill="none" width="1400" height="3600"/>
	</g>
</g>
<g id="Labels">
</g>
<g id="Icon">
	<g>
		<rect x="0" fill="none" width="48" height="48"/>
		<path d="M40,8H15.6l8,8H28v4.4l1.1,1.1L36,16v12.4l8,8c0-0.1,0-0.2,0-0.3V12C44,9.8,42.2,8,40,8z M4.5,2L2,4.5l4,4
			c-1.2,0.7-2,2-2,3.4v24c0,2.2,1.8,4,4,4h29.5l4,4l2.5-2.5L4.5,2z M12,16h1.5L28,30.5V32H12V16z"/>
	</g>
</g>
<g id="Grid" display="none">
	<g display="inline">
		<line fill="none" stroke="#00E5FF" stroke-width="0.1" stroke-miterlimit="10" x1="42" y1="-2488" x2="42" y2="1064"/>
	</g>
</g>
</svg>
