<?xml version="1.0" encoding="utf-8"?>
<!-- Generator: Adobe Illustrator 17.1.0, SVG Export Plug-In . SVG Version: 6.00 Build 0)  -->
<!DOCTYPE svg PUBLIC "-//W3C//DTD SVG 1.1//EN" "http://www.w3.org/Graphics/SVG/1.1/DTD/svg11.dtd">
<svg version="1.1" xmlns="http://www.w3.org/2000/svg" xmlns:xlink="http://www.w3.org/1999/xlink" x="0px" y="0px" width="24px"
	 height="24px" viewBox="0 0 24 24" enable-background="new 0 0 24 24" xml:space="preserve">
<g id="Header">
	<g>
		<rect x="-618" y="-2232" fill="none" width="1400" height="3600"/>
	</g>
</g>
<g id="Label">
</g>
<g id="Icon">
	<g>
		<rect x="0" fill="none" width="24" height="24"/>
		<rect x="0" fill="none" width="24" height="24"/>
		<path d="M20.6,20.9l-2.4-2.4L12,12.2L8.4,8.7L7,7.2L4.3,4.5L3,5.8l2.8,2.8c-2.5,3.1-2.4,7.8,0.6,10.7c1.6,1.6,3.6,2.3,5.7,2.3
			c1.8,0,3.6-0.6,5-1.8l2.7,2.7l1.3-1.3L20.6,20.9z M12,19.6c-1.6,0-3.1-0.6-4.2-1.8C6.6,16.7,6,15.2,6,13.6C6,12.3,6.4,11,7.2,10
			l4.8,4.8V19.6z M12,5.1v4.6l7.3,7.3c1.4-3,0.8-6.6-1.6-9L12,2.3l0,0v0L8.3,6l1.4,1.4L12,5.1z"/>
	</g>
</g>
<g id="Grid" display="none">
	<g display="inline">
	</g>
</g>
</svg>
