<?xml version="1.0" encoding="utf-8"?>
<!-- Generator: Adobe Illustrator 17.1.0, SVG Export Plug-In . SVG Version: 6.00 Build 0)  -->
<!DOCTYPE svg PUBLIC "-//W3C//DTD SVG 1.1//EN" "http://www.w3.org/Graphics/SVG/1.1/DTD/svg11.dtd">
<svg version="1.1" xmlns="http://www.w3.org/2000/svg" xmlns:xlink="http://www.w3.org/1999/xlink" x="0px" y="0px" width="48px"
	 height="48px" viewBox="0 0 48 48" enable-background="new 0 0 48 48" xml:space="preserve">
<g id="Header">
	<g>
		<rect x="-838" y="-2232" fill="none" width="1400" height="3600"/>
	</g>
</g>
<g id="Label">
</g>
<g id="Icon">
	<g>
		<rect x="0" fill="none" width="48" height="48"/>
		<rect x="0" fill="none" width="48" height="48"/>
		<path d="M41.3,41.7L36.6,37L24,24.5l-7.1-7.1L14,14.5L8.5,9L6,11.5l5.6,5.6c-5.1,6.3-4.7,15.5,1.1,21.4c3.1,3.1,7.2,4.7,11.3,4.7
			c3.6,0,7.1-1.2,10.1-3.6l5.4,5.4l2.5-2.5L41.3,41.7z M24,39.2c-3.2,0-6.2-1.2-8.5-3.5c-2.3-2.3-3.5-5.3-3.5-8.5
			c0-2.6,0.9-5.1,2.4-7.2l9.6,9.6V39.2z M24,10.2v9.2l14.5,14.5c2.7-5.9,1.7-13.1-3.2-18L24,4.5l0,0v0L16.6,12l2.8,2.8L24,10.2z"/>
	</g>
</g>
<g id="Grid" display="none">
	<g display="inline">
		<line fill="none" stroke="#00E5FF" stroke-width="0.1" stroke-miterlimit="10" x1="42" y1="-2232" x2="42" y2="1320"/>
	</g>
</g>
</svg>
