<?xml version="1.0" encoding="utf-8"?>
<!-- Generator: Adobe Illustrator 17.1.0, SVG Export Plug-In . SVG Version: 6.00 Build 0)  -->
<!DOCTYPE svg PUBLIC "-//W3C//DTD SVG 1.1//EN" "http://www.w3.org/Graphics/SVG/1.1/DTD/svg11.dtd">
<svg version="1.1" xmlns="http://www.w3.org/2000/svg" xmlns:xlink="http://www.w3.org/1999/xlink" x="0px" y="0px" width="48px"
	 height="48px" viewBox="0 0 48 48" enable-background="new 0 0 48 48" xml:space="preserve">
<g id="Header">
	<g>
		<rect x="-838" y="-440" fill="none" width="1400" height="3600"/>
	</g>
</g>
<g id="Label">
</g>
<g id="Icon">
	<g>
		<rect x="0" fill="none" width="48" height="48"/>
		<path d="M38,4H10C7.8,4,6,5.8,6,8v28c0,2.2,1.8,4,4,4h8l6,6l6-6h8c2.2,0,4-1.8,4-4V8C42,5.8,40.2,4,38,4z M26,36h-4v-4h4V36z
			 M30.1,20.5l-1.8,1.8C26.9,23.8,26,25,26,28h-4v-1c0-2.2,0.9-4.2,2.3-5.7l2.5-2.5c0.7-0.7,1.2-1.7,1.2-2.8c0-2.2-1.8-4-4-4
			c-2.2,0-4,1.8-4,4h-4c0-4.4,3.6-8,8-8s8,3.6,8,8C32,17.8,31.3,19.4,30.1,20.5z"/>
	</g>
</g>
<g id="Grid" display="none">
	<g display="inline">
		<line fill="none" stroke="#00E5FF" stroke-width="0.1" stroke-miterlimit="10" x1="42" y1="-440" x2="42" y2="3112"/>
	</g>
</g>
</svg>
