<?xml version="1.0" encoding="utf-8"?>
<!-- Generator: Adobe Illustrator 17.1.0, SVG Export Plug-In . SVG Version: 6.00 Build 0)  -->
<!DOCTYPE svg PUBLIC "-//W3C//DTD SVG 1.1//EN" "http://www.w3.org/Graphics/SVG/1.1/DTD/svg11.dtd">
<svg version="1.1" xmlns="http://www.w3.org/2000/svg" xmlns:xlink="http://www.w3.org/1999/xlink" x="0px" y="0px" width="48px"
	 height="48px" viewBox="0 0 48 48" enable-background="new 0 0 48 48" xml:space="preserve">
<g id="Header">
	<g>
		<rect x="-838" y="-952" fill="none" width="1400" height="3600"/>
	</g>
</g>
<g id="Label">
</g>
<g id="Icon">
	<g>
		<g>
			<rect fill="none" width="48" height="48"/>
			<g>
				<polygon fill="none" points="23.5,22.9 23.5,22.9 23.3,22.7 				"/>
			</g>
		</g>
		<path d="M24,13c2.8,0,5,2.2,5,5c0,1.5-0.7,2.8-1.7,3.7l7.3,7.3c2-3.7,3.4-7.6,3.4-11c0-7.7-6.3-14-14-14c-4,0-7.5,1.6-10.1,4.3
			l6.4,6.4C21.2,13.6,22.5,13,24,13z M32.7,32.2l-9.3-9.3l-0.2-0.2L6.5,6L4,8.5l6.4,6.4c-0.2,1-0.4,2-0.4,3.1c0,10.5,14,26,14,26
			s3.3-3.7,6.8-8.7l6.7,6.7l2.5-2.5L32.7,32.2z"/>
	</g>
</g>
<g id="Grid" display="none">
	<g display="inline">
		<line fill="none" stroke="#00E5FF" stroke-width="0.1" stroke-miterlimit="10" x1="42" y1="-952" x2="42" y2="2600"/>
	</g>
</g>
</svg>
