<?xml version="1.0" encoding="utf-8"?>
<!-- Generator: Adobe Illustrator 17.1.0, SVG Export Plug-In . SVG Version: 6.00 Build 0)  -->
<!DOCTYPE svg PUBLIC "-//W3C//DTD SVG 1.1//EN" "http://www.w3.org/Graphics/SVG/1.1/DTD/svg11.dtd">
<svg version="1.1" xmlns="http://www.w3.org/2000/svg" xmlns:xlink="http://www.w3.org/1999/xlink" x="0px" y="0px" width="48px"
	 height="48px" viewBox="0 0 48 48" enable-background="new 0 0 48 48" xml:space="preserve">
<g id="Header">
	<g>
		<rect x="-838" y="-1336" fill="none" width="1400" height="3600"/>
	</g>
</g>
<g id="Label">
</g>
<g id="Icon">
	<g>
		<rect fill="none" width="48" height="48"/>
		<rect fill="none" width="48" height="48"/>
		<path d="M35.1,28.5c0.6-1.4,0.9-2.9,0.9-4.5c0-6.6-5.4-12-12-12c-1.6,0-3.1,0.3-4.5,0.9l3.2,3.2c0.4-0.1,0.8-0.1,1.2-0.1
			c4.4,0,8,3.6,8,8c0,0.4,0,0.8-0.1,1.3L35.1,28.5z M24,8c8.8,0,16,7.2,16,16c0,2.7-0.7,5.2-1.9,7.5l2.9,2.9c1.9-3,3-6.6,3-10.4
			c0-11-9-20-20-20c-3.8,0-7.4,1.1-10.4,2.9l2.9,2.9C18.7,8.7,21.3,8,24,8z M6.5,5L4,7.5l4.2,4.2C5.6,15.1,4,19.4,4,24
			c0,7.4,4,13.8,10,17.3l2-3.5c-4.8-2.8-8-7.9-8-13.8c0-3.5,1.1-6.8,3.1-9.4l2.9,2.9C12.7,19.4,12,21.6,12,24c0,4.4,2.4,8.3,6,10.4
			l2-3.5c-2.4-1.4-4-3.9-4-6.9c0-1.3,0.3-2.5,0.9-3.6l3.2,3.2c0,0.1,0,0.3,0,0.4c0,2.2,1.8,4,4,4c0.1,0,0.3,0,0.4,0l0,0v0l15,15
			l2.5-2.5L8.5,7L6.5,5z"/>
	</g>
</g>
<g id="Grid" display="none">
	<g display="inline">
		<line fill="none" stroke="#00E5FF" stroke-width="0.1" stroke-miterlimit="10" x1="42" y1="-1336" x2="42" y2="2216"/>
	</g>
</g>
</svg>
