<?xml version="1.0" encoding="utf-8"?>
<!-- Generator: Adobe Illustrator 17.1.0, SVG Export Plug-In . SVG Version: 6.00 Build 0)  -->
<!DOCTYPE svg PUBLIC "-//W3C//DTD SVG 1.1//EN" "http://www.w3.org/Graphics/SVG/1.1/DTD/svg11.dtd">
<svg version="1.1" xmlns="http://www.w3.org/2000/svg" xmlns:xlink="http://www.w3.org/1999/xlink" x="0px" y="0px" width="48px"
	 height="48px" viewBox="0 0 48 48" enable-background="new 0 0 48 48" xml:space="preserve">
<g id="Header">
	<g>
		<rect x="-838" y="-3128" fill="none" width="1400" height="3600"/>
	</g>
</g>
<g id="Labels">
</g>
<g id="Icon">
	<g>
		<rect x="0" fill="none" width="48" height="48"/>
		<path d="M47.4,33.3C41.3,27.6,33.1,24,24,24S6.7,27.6,0.6,33.3C0.2,33.7,0,34.2,0,34.8c0,0.6,0.2,1.1,0.6,1.4l5,5
			c0.4,0.4,0.9,0.6,1.4,0.6c0.5,0,1-0.2,1.4-0.6c1.6-1.5,3.4-2.7,5.3-3.7c0.7-0.3,1.1-1,1.1-1.8l0-6.2c2.9-0.9,6-1.4,9.2-1.4
			s6.3,0.5,9.2,1.4l0,6.2c0,0.8,0.5,1.5,1.1,1.8c2,1,3.7,2.2,5.3,3.7c0.4,0.4,0.9,0.6,1.4,0.6c0.6,0,1.1-0.2,1.4-0.6l5-5
			c0.4-0.4,0.6-0.9,0.6-1.4C48,34.2,47.8,33.7,47.4,33.3z M42.3,12.5l-2.8-2.8l-7.1,7.1l2.8,2.8C35.2,19.6,42.1,12.6,42.3,12.5z
			 M26,4h-4v10h4V4z M12.8,19.6l2.8-2.8L8.5,9.7l-2.8,2.8C5.9,12.6,12.8,19.6,12.8,19.6z"/>
	</g>
</g>
<g id="Grid" display="none">
	<g display="inline">
		<line fill="none" stroke="#00E5FF" stroke-width="0.1" stroke-miterlimit="10" x1="42" y1="-3128" x2="42" y2="424"/>
	</g>
</g>
</svg>
