<?xml version="1.0" encoding="utf-8"?>
<!-- Generator: Adobe Illustrator 17.1.0, SVG Export Plug-In . SVG Version: 6.00 Build 0)  -->
<!DOCTYPE svg PUBLIC "-//W3C//DTD SVG 1.1//EN" "http://www.w3.org/Graphics/SVG/1.1/DTD/svg11.dtd">
<svg version="1.1" xmlns="http://www.w3.org/2000/svg" xmlns:xlink="http://www.w3.org/1999/xlink" x="0px" y="0px" width="48px"
	 height="48px" viewBox="0 0 48 48" enable-background="new 0 0 48 48" xml:space="preserve">
<g id="Header">
	<g>
		<rect x="-838" y="-696" fill="none" width="1400" height="3600"/>
	</g>
</g>
<g id="Label">
</g>
<g id="Icon">
	<g>
		<rect fill="none" width="48" height="48"/>
		<path d="M24,4C13,4,4,13,4,24s9,20,20,20s20-9,20-20S35,4,24,4z M22,39.9C14.8,39,9,33.2,8.1,26h6.1c0.8,3.9,3.9,7,7.8,7.8V39.9z
			 M20,16l-6,6H8.1c1-7.9,7.7-14,15.9-14s14.9,6.1,15.9,14H34l-6-6H20z M26,39.9v-6.1c3.9-0.8,7-3.9,7.8-7.8h6.1
			C39,33.2,33.2,39,26,39.9z"/>
	</g>
</g>
<g id="Grid" display="none">
	<g display="inline">
		<line fill="none" stroke="#00E5FF" stroke-width="0.1" stroke-miterlimit="10" x1="42" y1="-696" x2="42" y2="2856"/>
	</g>
</g>
</svg>
