<?xml version="1.0" encoding="utf-8"?>
<!-- Generator: Adobe Illustrator 17.1.0, SVG Export Plug-In . SVG Version: 6.00 Build 0)  -->
<!DOCTYPE svg PUBLIC "-//W3C//DTD SVG 1.1//EN" "http://www.w3.org/Graphics/SVG/1.1/DTD/svg11.dtd">
<svg version="1.1" xmlns="http://www.w3.org/2000/svg" xmlns:xlink="http://www.w3.org/1999/xlink" x="0px" y="0px" width="24px"
	 height="24px" viewBox="0 0 24 24" enable-background="new 0 0 24 24" xml:space="preserve">
<g id="Header">
	<g>
		<rect x="-618" y="-568" fill="none" width="1400" height="3600"/>
	</g>
</g>
<g id="Label">
</g>
<g id="Icon">
	<path d="M18,4l-4,4h3v7c0,1.1-0.9,2-2,2s-2-0.9-2-2V8c0-2.2-1.8-4-4-4S5,5.8,5,8v7H2l4,4l4-4H7V8c0-1.1,0.9-2,2-2s2,0.9,2,2v7
		c0,2.2,1.8,4,4,4s4-1.8,4-4V8h3L18,4z"/>
	<rect fill="none" width="24" height="24"/>
</g>
<g id="Grid" display="none">
	<g display="inline">
	</g>
</g>
</svg>
