<?xml version="1.0" encoding="utf-8"?>
<!-- Generator: Adobe Illustrator 17.1.0, SVG Export Plug-In . SVG Version: 6.00 Build 0)  -->
<!DOCTYPE svg PUBLIC "-//W3C//DTD SVG 1.1//EN" "http://www.w3.org/Graphics/SVG/1.1/DTD/svg11.dtd">
<svg version="1.1" xmlns="http://www.w3.org/2000/svg" xmlns:xlink="http://www.w3.org/1999/xlink" x="0px" y="0px" width="48px"
	 height="48px" viewBox="0 0 48 48" enable-background="new 0 0 48 48" xml:space="preserve">
<g id="Header">
	<g>
		<rect x="-838" y="-3384" fill="none" width="1400" height="3600"/>
	</g>
</g>
<g id="Labels">
</g>
<g id="Icon">
	<g>
		<rect x="0" fill="none" width="48" height="48"/>
		<path d="M37,12c-6.1,0-11,4.9-11,11c0,2.7,0.9,5.1,2.5,7h-9c1.6-1.9,2.5-4.3,2.5-7c0-6.1-4.9-11-11-11S0,16.9,0,23s4.9,11,11,11
			h26c6.1,0,11-4.9,11-11S43.1,12,37,12z M11,30c-3.9,0-7-3.1-7-7c0-3.9,3.1-7,7-7s7,3.1,7,7C18,26.9,14.9,30,11,30z M37,30
			c-3.9,0-7-3.1-7-7c0-3.9,3.1-7,7-7s7,3.1,7,7C44,26.9,40.9,30,37,30z"/>
	</g>
</g>
<g id="Grid" display="none">
	<g display="inline">
		<line fill="none" stroke="#00E5FF" stroke-width="0.1" stroke-miterlimit="10" x1="42" y1="-3384" x2="42" y2="168"/>
	</g>
</g>
</svg>
