<?xml version="1.0" encoding="utf-8"?>
<!-- Generator: Adobe Illustrator 17.1.0, SVG Export Plug-In . SVG Version: 6.00 Build 0)  -->
<!DOCTYPE svg PUBLIC "-//W3C//DTD SVG 1.1//EN" "http://www.w3.org/Graphics/SVG/1.1/DTD/svg11.dtd">
<svg version="1.1" xmlns="http://www.w3.org/2000/svg" xmlns:xlink="http://www.w3.org/1999/xlink" x="0px" y="0px" width="48px"
	 height="48px" viewBox="0 0 48 48" enable-background="new 0 0 48 48" xml:space="preserve">
<g id="Header">
	<g>
		<rect x="-838" y="-1976" fill="none" width="1400" height="3600"/>
	</g>
</g>
<g id="Label">
</g>
<g id="Icon">
	<g>
		<rect fill="none" width="48" height="48"/>
		<path d="M25.3,20c-1.6-4.7-6.1-8-11.3-8C7.4,12,2,17.4,2,24s5.4,12,12,12c5.2,0,9.7-3.3,11.3-8H34v8h8v-8h4v-8H25.3z M14,28
			c-2.2,0-4-1.8-4-4c0-2.2,1.8-4,4-4s4,1.8,4,4C18,26.2,16.2,28,14,28z"/>
	</g>
</g>
<g id="Grid" display="none">
	<g display="inline">
		<line fill="none" stroke="#00E5FF" stroke-width="0.1" stroke-miterlimit="10" x1="42" y1="-1976" x2="42" y2="1576"/>
	</g>
</g>
</svg>
