<?xml version="1.0" encoding="utf-8"?>
<!-- Generator: Adobe Illustrator 17.1.0, SVG Export Plug-In . SVG Version: 6.00 Build 0)  -->
<!DOCTYPE svg PUBLIC "-//W3C//DTD SVG 1.1//EN" "http://www.w3.org/Graphics/SVG/1.1/DTD/svg11.dtd">
<svg version="1.1" xmlns="http://www.w3.org/2000/svg" xmlns:xlink="http://www.w3.org/1999/xlink" x="0px" y="0px" width="24px"
	 height="24px" viewBox="0 0 24 24" enable-background="new 0 0 24 24" xml:space="preserve">
<g id="Header">
	<g>
		<rect x="-618" y="-952" fill="none" width="1400" height="3600"/>
	</g>
</g>
<g id="Labels">
</g>
<g id="Icon">
	<g>
		<g>
			<path d="M20.5,5.2l-1.4-1.7C18.9,3.2,18.5,3,18,3H6C5.5,3,5.1,3.2,4.8,3.5L3.5,5.2C3.2,5.6,3,6,3,6.5V19c0,1.1,0.9,2,2,2h14
				c1.1,0,2-0.9,2-2V6.5C21,6,20.8,5.6,20.5,5.2z M12,17.5L6.5,12H10v-2h4v2h3.5L12,17.5z M5.1,5l0.8-1h12l0.9,1H5.1z"/>
		</g>
		<rect fill="none" width="24" height="24"/>
	</g>
</g>
<g id="Grid" display="none">
	<g display="inline">
	</g>
</g>
</svg>
