<?xml version="1.0" encoding="utf-8"?>
<!-- Generator: Adobe Illustrator 17.1.0, SVG Export Plug-In . SVG Version: 6.00 Build 0)  -->
<!DOCTYPE svg PUBLIC "-//W3C//DTD SVG 1.1//EN" "http://www.w3.org/Graphics/SVG/1.1/DTD/svg11.dtd">
<svg version="1.1" xmlns="http://www.w3.org/2000/svg" xmlns:xlink="http://www.w3.org/1999/xlink" x="0px" y="0px" width="24px"
	 height="24px" viewBox="0 0 24 24" enable-background="new 0 0 24 24" xml:space="preserve">
<g id="Header">
	<g>
		<rect x="-618" y="-1592" fill="none" width="1400" height="3600"/>
	</g>
</g>
<g id="Labels">
</g>
<g id="Icon">
	<g>
		<g>
			<rect fill="none" width="24" height="24"/>
		</g>
		<path d="M10,6c0-2.2-1.8-4-4-4S2,3.8,2,6c0,2.2,1.8,4,4,4c0.6,0,1.1-0.1,1.6-0.4L10,12l-2.4,2.4C7.1,14.1,6.6,14,6,14
			c-2.2,0-4,1.8-4,4c0,2.2,1.8,4,4,4s4-1.8,4-4c0-0.6-0.1-1.1-0.4-1.6L12,14l7,7h4L9.6,7.6C9.9,7.1,10,6.6,10,6z M6,8
			C4.9,8,4,7.1,4,6s0.9-2,2-2c1.1,0,2,0.9,2,2S7.1,8,6,8z M6,20c-1.1,0-2-0.9-2-2s0.9-2,2-2c1.1,0,2,0.9,2,2S7.1,20,6,20z M12,11.5
			c0.3,0,0.5,0.2,0.5,0.5c0,0.3-0.2,0.5-0.5,0.5c-0.3,0-0.5-0.2-0.5-0.5C11.5,11.7,11.7,11.5,12,11.5z M23,3h-4l-6,6l2,2L23,3z"/>
	</g>
</g>
<g id="Grid" display="none">
	<g display="inline">
	</g>
</g>
</svg>
