<?xml version="1.0" encoding="utf-8"?>
<!-- Generator: Adobe Illustrator 17.1.0, SVG Export Plug-In . SVG Version: 6.00 Build 0)  -->
<!DOCTYPE svg PUBLIC "-//W3C//DTD SVG 1.1//EN" "http://www.w3.org/Graphics/SVG/1.1/DTD/svg11.dtd">
<svg version="1.1" xmlns="http://www.w3.org/2000/svg" xmlns:xlink="http://www.w3.org/1999/xlink" x="0px" y="0px" width="48px"
	 height="48px" viewBox="0 0 48 48" enable-background="new 0 0 48 48" xml:space="preserve">
<g id="Header">
	<g>
		<rect x="-838" y="-1592" fill="none" width="1400" height="3600"/>
	</g>
</g>
<g id="Labels">
</g>
<g id="Icon">
	<g>
		<g>
			<rect fill="none" width="48" height="48"/>
		</g>
		<path d="M20,12c0-4.4-3.6-8-8-8s-8,3.6-8,8c0,4.4,3.6,8,8,8c1.2,0,2.3-0.3,3.3-0.7L20,24l-4.7,4.7c-1-0.5-2.1-0.7-3.3-0.7
			c-4.4,0-8,3.6-8,8c0,4.4,3.6,8,8,8s8-3.6,8-8c0-1.2-0.3-2.3-0.7-3.3L24,28l14,14h8L19.3,15.3C19.7,14.3,20,13.2,20,12z M12,16
			c-2.2,0-4-1.8-4-4s1.8-4,4-4s4,1.8,4,4S14.2,16,12,16z M12,40c-2.2,0-4-1.8-4-4s1.8-4,4-4s4,1.8,4,4S14.2,40,12,40z M24,23
			c0.6,0,1,0.4,1,1c0,0.6-0.4,1-1,1c-0.6,0-1-0.4-1-1C23,23.4,23.4,23,24,23z M46,6h-8L26,18l4,4L46,6z"/>
	</g>
</g>
<g id="Grid" display="none">
	<g display="inline">
		<line fill="none" stroke="#00E5FF" stroke-width="0.1" stroke-miterlimit="10" x1="42" y1="-1592" x2="42" y2="1960"/>
	</g>
</g>
</svg>
