<?xml version="1.0" encoding="utf-8"?>
<!-- Generator: Adobe Illustrator 17.1.0, SVG Export Plug-In . SVG Version: 6.00 Build 0)  -->
<!DOCTYPE svg PUBLIC "-//W3C//DTD SVG 1.1//EN" "http://www.w3.org/Graphics/SVG/1.1/DTD/svg11.dtd">
<svg version="1.1" xmlns="http://www.w3.org/2000/svg" xmlns:xlink="http://www.w3.org/1999/xlink" x="0px" y="0px" width="24px"
	 height="24px" viewBox="0 0 24 24" enable-background="new 0 0 24 24" xml:space="preserve">
<g id="Header">
	<g>
		<rect x="-618" y="-2488" fill="none" width="1400" height="3600"/>
	</g>
</g>
<g id="Labels">
</g>
<g id="Icon">
	<g>
		<g>
			<path d="M4.6,6.9C5.3,6.2,6,5.5,6.3,5.7c0.5,0.2,0,1-0.3,1.5c-0.3,0.4-2.9,3.9-2.9,6.3c0,1.3,0.5,2.3,1.3,3
				c0.8,0.6,1.7,0.7,2.6,0.5c1.1-0.3,1.9-1.4,3.1-2.8c1.2-1.5,2.8-3.4,4.1-3.4c1.6,0,1.6,1,1.8,1.8c-3.8,0.6-5.4,3.7-5.4,5.4
				c0,1.7,1.4,3.1,3.2,3.1c1.6,0,4.3-1.3,4.7-6.1H21v-2.5h-2.5c-0.2-1.6-1.1-4.2-4-4.2c-2.2,0-4.2,1.9-4.9,2.8
				c-0.6,0.7-2.1,2.5-2.3,2.7c-0.3,0.3-0.7,0.8-1.1,0.8c-0.4,0-0.7-0.8-0.4-1.9c0.4-1.1,1.4-2.9,1.9-3.5C8.4,8,8.9,7.2,8.9,5.9
				C8.9,3.7,7.3,3,6.4,3C5.1,3,4,4,3.7,4.3C3.4,4.6,3.1,4.9,2.8,5.2L4.6,6.9z M13.9,18.6c-0.3,0-0.7-0.3-0.7-0.7
				c0-0.6,0.7-2.2,2.9-2.8C15.7,17.8,14.6,18.6,13.9,18.6z"/>
		</g>
		<rect fill="none" width="24" height="24"/>
	</g>
</g>
<g id="Grid" display="none">
	<g display="inline">
	</g>
</g>
</svg>
