<?xml version="1.0" encoding="utf-8"?>
<!-- Generator: Adobe Illustrator 17.1.0, SVG Export Plug-In . SVG Version: 6.00 Build 0)  -->
<!DOCTYPE svg PUBLIC "-//W3C//DTD SVG 1.1//EN" "http://www.w3.org/Graphics/SVG/1.1/DTD/svg11.dtd">
<svg version="1.1" xmlns="http://www.w3.org/2000/svg" xmlns:xlink="http://www.w3.org/1999/xlink" x="0px" y="0px" width="48px"
	 height="48px" viewBox="0 0 48 48" enable-background="new 0 0 48 48" xml:space="preserve">
<g id="Header">
	<g>
		<rect x="-838" y="-2488" fill="none" width="1400" height="3600"/>
	</g>
</g>
<g id="Labels">
</g>
<g id="Icon">
	<g>
		<g>
			<path d="M9.2,13.8c1.4-1.4,2.8-2.7,3.4-2.4c1,0.4,0,2.1-0.6,3.1c-0.5,0.8-5.7,7.8-5.7,12.6c0,2.6,1,4.7,2.7,6
				c1.5,1.1,3.5,1.5,5.3,0.9c2.1-0.6,3.9-2.8,6.1-5.5c2.4-3,5.7-6.9,8.2-6.9c3.3,0,3.3,2,3.5,3.6c-7.6,1.3-10.8,7.3-10.8,10.7
				c0,3.4,2.9,6.2,6.4,6.2c3.3,0,8.6-2.7,9.4-12.2H42v-5h-4.9c-0.3-3.3-2.2-8.4-8.1-8.4c-4.5,0-8.4,3.8-9.9,5.7
				c-1.2,1.5-4.1,5-4.6,5.4c-0.5,0.6-1.4,1.7-2.2,1.7c-0.9,0-1.4-1.7-0.7-3.8c0.7-2.2,2.8-5.7,3.7-7c1.6-2.3,2.6-3.8,2.6-6.6
				c0-4.4-3.3-5.8-5-5.8c-2.6,0-4.9,2-5.4,2.5c-0.7,0.7-1.3,1.3-1.7,1.9L9.2,13.8z M27.8,37.1c-0.6,0-1.5-0.5-1.5-1.4
				c0-1.2,1.5-4.4,5.7-5.5C31.4,35.5,29.2,37.1,27.8,37.1z"/>
		</g>
		<rect fill="none" width="48" height="48"/>
	</g>
</g>
<g id="Grid" display="none">
	<g display="inline">
		<line fill="none" stroke="#00E5FF" stroke-width="0.1" stroke-miterlimit="10" x1="42" y1="-2488" x2="42" y2="1064"/>
	</g>
</g>
</svg>
