<?xml version="1.0" encoding="utf-8"?>
<!-- Generator: Adobe Illustrator 17.1.0, SVG Export Plug-In . SVG Version: 6.00 Build 0)  -->
<!DOCTYPE svg PUBLIC "-//W3C//DTD SVG 1.1//EN" "http://www.w3.org/Graphics/SVG/1.1/DTD/svg11.dtd">
<svg version="1.1" xmlns="http://www.w3.org/2000/svg" xmlns:xlink="http://www.w3.org/1999/xlink" x="0px" y="0px" width="24px"
	 height="24px" viewBox="0 0 24 24" enable-background="new 0 0 24 24" xml:space="preserve">
<g id="Header">
	<g>
		<rect x="-618" y="-3000" fill="none" width="1400" height="3600"/>
	</g>
</g>
<g id="Labels">
</g>
<g id="Icon">
	<g>
		<g>
			<rect fill="none" width="24" height="24"/>
		</g>
		<path d="M22,6l2-2l-2-2l-2,2l-2-2l-2,2l-2-2l-2,2l-2-2L8,4L6,2L4,4L2,2L0,4l2,2L0,8l2,2l-2,2l2,2l-2,2l2,2l-2,2l2,2l2-2l2,2l2-2
			l2,2l2-2l2,2l2-2l2,2l2-2l2,2l2-2l-2-2l2-2l-2-2l2-2l-2-2l2-2L22,6z M20,8l-8,5L4,8V6l8,5l8-5V8z"/>
	</g>
</g>
<g id="Grid" display="none">
	<g display="inline">
	</g>
</g>
</svg>
