<?xml version="1.0" encoding="utf-8"?>
<!-- Generator: Adobe Illustrator 17.1.0, SVG Export Plug-In . SVG Version: 6.00 Build 0)  -->
<!DOCTYPE svg PUBLIC "-//W3C//DTD SVG 1.1//EN" "http://www.w3.org/Graphics/SVG/1.1/DTD/svg11.dtd">
<svg version="1.1" xmlns="http://www.w3.org/2000/svg" xmlns:xlink="http://www.w3.org/1999/xlink" x="0px" y="0px" width="48px"
	 height="48px" viewBox="0 0 48 48" enable-background="new 0 0 48 48" xml:space="preserve">
<g id="Header">
	<g>
		<rect x="-838" y="-824" fill="none" width="1400" height="3600"/>
	</g>
</g>
<g id="Labels">
</g>
<g id="Icon">
	<g>
		<rect fill="none" width="48" height="48"/>
		<path d="M14.2,17.1l-2.8-2.8c-1.8,2.3-2.9,5-3.2,7.8h4C12.5,20.3,13.2,18.6,14.2,17.1z M12.2,26h-4c0.3,2.8,1.4,5.5,3.2,7.8
			l2.8-2.8C13.2,29.4,12.5,27.7,12.2,26z M14.2,36.6c2.3,1.8,5,2.9,7.8,3.2v-4c-1.7-0.3-3.4-1-4.9-2.1L14.2,36.6z M26,8.1V2
			l-9.1,9.1L26,20v-7.8c5.7,1,10,5.9,10,11.8s-4.3,10.9-10,11.8v4c7.9-1,14-7.7,14-15.9S33.9,9.1,26,8.1z"/>
	</g>
</g>
<g id="Grid" display="none">
	<g display="inline">
		<line fill="none" stroke="#00E5FF" stroke-width="0.1" stroke-miterlimit="10" x1="42" y1="-824" x2="42" y2="2728"/>
	</g>
</g>
</svg>
