<?xml version="1.0" encoding="utf-8"?>
<!-- Generator: Adobe Illustrator 17.1.0, SVG Export Plug-In . SVG Version: 6.00 Build 0)  -->
<!DOCTYPE svg PUBLIC "-//W3C//DTD SVG 1.1//EN" "http://www.w3.org/Graphics/SVG/1.1/DTD/svg11.dtd">
<svg version="1.1" xmlns="http://www.w3.org/2000/svg" xmlns:xlink="http://www.w3.org/1999/xlink" x="0px" y="0px" width="24px"
	 height="24px" viewBox="0 0 24 24" enable-background="new 0 0 24 24" xml:space="preserve">
<g id="Header">
	<g>
		<rect x="-618" y="-824" fill="none" width="1400" height="3600"/>
	</g>
</g>
<g id="Labels">
</g>
<g id="Icon">
	<g>
		<rect fill="none" width="24" height="24"/>
		<path d="M7.1,8.5L5.7,7.1C4.8,8.3,4.2,9.6,4.1,11h2C6.2,10.1,6.6,9.3,7.1,8.5z M6.1,13h-2c0.2,1.4,0.7,2.7,1.6,3.9l1.4-1.4
			C6.6,14.7,6.2,13.9,6.1,13z M7.1,18.3c1.2,0.9,2.5,1.4,3.9,1.6v-2c-0.9-0.1-1.7-0.5-2.5-1L7.1,18.3z M13,4.1V1L8.5,5.5L13,10V6.1
			c2.8,0.5,5,2.9,5,5.9s-2.2,5.4-5,5.9v2c3.9-0.5,7-3.9,7-7.9S16.9,4.6,13,4.1z"/>
	</g>
</g>
<g id="Grid" display="none">
	<g display="inline">
	</g>
</g>
</svg>
