<?xml version="1.0" encoding="utf-8"?>
<!-- Generator: Adobe Illustrator 17.1.0, SVG Export Plug-In . SVG Version: 6.00 Build 0)  -->
<!DOCTYPE svg PUBLIC "-//W3C//DTD SVG 1.1//EN" "http://www.w3.org/Graphics/SVG/1.1/DTD/svg11.dtd">
<svg version="1.1" xmlns="http://www.w3.org/2000/svg" xmlns:xlink="http://www.w3.org/1999/xlink" x="0px" y="0px" width="48px"
	 height="48px" viewBox="0 0 48 48" enable-background="new 0 0 48 48" xml:space="preserve">
<g id="Header">
	<g>
		<rect x="-838" y="-952" fill="none" width="1400" height="3600"/>
	</g>
</g>
<g id="Labels">
</g>
<g id="Icon">
	<g>
		<rect fill="none" width="48" height="48"/>
		<path d="M31.1,11.1L22,2v6.1C14.1,9.1,8,15.8,8,24s6.1,14.9,14,15.9v-4c-5.7-1-10-5.9-10-11.8s4.3-10.9,10-11.8V20L31.1,11.1z
			 M39.9,22c-0.3-2.8-1.4-5.5-3.2-7.8l-2.8,2.8c1.1,1.5,1.8,3.2,2,4.9H39.9z M26,35.8v4c2.8-0.3,5.5-1.4,7.8-3.2l-2.9-2.9
			C29.4,34.8,27.7,35.5,26,35.8z M33.8,30.9l2.8,2.8c1.8-2.3,2.9-5,3.2-7.8h-4C35.5,27.7,34.8,29.4,33.8,30.9z"/>
	</g>
</g>
<g id="Grid" display="none">
	<g display="inline">
		<line fill="none" stroke="#00E5FF" stroke-width="0.1" stroke-miterlimit="10" x1="42" y1="-952" x2="42" y2="2600"/>
	</g>
</g>
</svg>
