<?xml version="1.0" encoding="utf-8"?>
<!-- Generator: Adobe Illustrator 17.1.0, SVG Export Plug-In . SVG Version: 6.00 Build 0)  -->
<!DOCTYPE svg PUBLIC "-//W3C//DTD SVG 1.1//EN" "http://www.w3.org/Graphics/SVG/1.1/DTD/svg11.dtd">
<svg version="1.1" xmlns="http://www.w3.org/2000/svg" xmlns:xlink="http://www.w3.org/1999/xlink" x="0px" y="0px" width="24px"
	 height="24px" viewBox="0 0 24 24" enable-background="new 0 0 24 24" xml:space="preserve">
<g id="Header">
	<g>
		<rect x="-618" y="-1208" fill="none" width="1400" height="3600"/>
	</g>
</g>
<g id="Labels">
</g>
<g id="Icon">
	<g>
		<rect fill="none" width="24" height="24"/>
		<path d="M3,5h2V3C3.9,3,3,3.9,3,5z M3,13h2v-2H3V13z M7,21h2v-2H7V21z M3,9h2V7H3V9z M13,3h-2v2h2V3z M19,3v2h2
			C21,3.9,20.1,3,19,3z M5,21v-2H3C3,20.1,3.9,21,5,21z M3,17h2v-2H3V17z M9,3H7v2h2V3z M11,21h2v-2h-2V21z M19,13h2v-2h-2V13z
			 M19,21c1.1,0,2-0.9,2-2h-2V21z M19,9h2V7h-2V9z M19,17h2v-2h-2V17z M15,21h2v-2h-2V21z M15,5h2V3h-2V5z M7,17h10V7H7V17z M9,9h6
			v6H9V9z"/>
	</g>
</g>
<g id="Grid" display="none">
	<g display="inline">
	</g>
</g>
</svg>
