<?xml version="1.0" encoding="utf-8"?>
<!-- Generator: Adobe Illustrator 17.1.0, SVG Export Plug-In . SVG Version: 6.00 Build 0)  -->
<!DOCTYPE svg PUBLIC "-//W3C//DTD SVG 1.1//EN" "http://www.w3.org/Graphics/SVG/1.1/DTD/svg11.dtd">
<svg version="1.1" xmlns="http://www.w3.org/2000/svg" xmlns:xlink="http://www.w3.org/1999/xlink" x="0px" y="0px" width="48px"
	 height="48px" viewBox="0 0 48 48" enable-background="new 0 0 48 48" xml:space="preserve">
<g id="Header">
	<g>
		<rect x="-838" y="-1208" fill="none" width="1400" height="3600"/>
	</g>
</g>
<g id="Labels">
</g>
<g id="Icon">
	<g>
		<rect fill="none" width="48" height="48"/>
		<path d="M6,10h4V6C7.8,6,6,7.8,6,10z M6,26h4v-4H6V26z M14,42h4v-4h-4V42z M6,18h4v-4H6V18z M26,6h-4v4h4V6z M38,6v4h4
			C42,7.8,40.2,6,38,6z M10,42v-4H6C6,40.2,7.8,42,10,42z M6,34h4v-4H6V34z M18,6h-4v4h4V6z M22,42h4v-4h-4V42z M38,26h4v-4h-4V26z
			 M38,42c2.2,0,4-1.8,4-4h-4V42z M38,18h4v-4h-4V18z M38,34h4v-4h-4V34z M30,42h4v-4h-4V42z M30,10h4V6h-4V10z M14,34h20V14H14V34z
			 M18,18h12v12H18V18z"/>
	</g>
</g>
<g id="Grid" display="none">
	<g display="inline">
		<line fill="none" stroke="#00E5FF" stroke-width="0.1" stroke-miterlimit="10" x1="42" y1="-1208" x2="42" y2="2344"/>
	</g>
</g>
</svg>
