<?xml version="1.0" encoding="utf-8"?>
<!-- Generator: Adobe Illustrator 17.1.0, SVG Export Plug-In . SVG Version: 6.00 Build 0)  -->
<!DOCTYPE svg PUBLIC "-//W3C//DTD SVG 1.1//EN" "http://www.w3.org/Graphics/SVG/1.1/DTD/svg11.dtd">
<svg version="1.1" xmlns="http://www.w3.org/2000/svg" xmlns:xlink="http://www.w3.org/1999/xlink" x="0px" y="0px" width="24px"
	 height="24px" viewBox="0 0 24 24" enable-background="new 0 0 24 24" xml:space="preserve">
<g id="Header">
	<g>
		<rect x="-618" y="-1336" fill="none" width="1400" height="3600"/>
	</g>
</g>
<g id="Label">
</g>
<g id="Icon">
	<g>
		<g>
			<rect fill="none" width="24" height="24"/>
		</g>
		<path d="M12,2C7.6,2,4,2.5,4,6v9.5C4,17.4,5.6,19,7.5,19L6,20.5V21h12v-0.5L16.5,19c1.9,0,3.5-1.6,3.5-3.5V6C20,2.5,16.4,2,12,2z
			 M7.5,17C6.7,17,6,16.3,6,15.5C6,14.7,6.7,14,7.5,14C8.3,14,9,14.7,9,15.5C9,16.3,8.3,17,7.5,17z M11,11H6V6h5V11z M16.5,17
			c-0.8,0-1.5-0.7-1.5-1.5c0-0.8,0.7-1.5,1.5-1.5c0.8,0,1.5,0.7,1.5,1.5C18,16.3,17.3,17,16.5,17z M18,11h-5V6h5V11z"/>
	</g>
</g>
<g id="Grid" display="none">
	<g display="inline">
	</g>
</g>
</svg>
