<?xml version="1.0" encoding="utf-8"?>
<!-- Generator: Adobe Illustrator 17.1.0, SVG Export Plug-In . SVG Version: 6.00 Build 0)  -->
<!DOCTYPE svg PUBLIC "-//W3C//DTD SVG 1.1//EN" "http://www.w3.org/Graphics/SVG/1.1/DTD/svg11.dtd">
<svg version="1.1" xmlns="http://www.w3.org/2000/svg" xmlns:xlink="http://www.w3.org/1999/xlink" x="0px" y="0px" width="24px"
	 height="24px" viewBox="0 0 24 24" enable-background="new 0 0 24 24" xml:space="preserve">
<g id="Header">
	<g>
		<rect x="-618" y="-952" fill="none" width="1400" height="3600"/>
	</g>
</g>
<g id="Label">
</g>
<g id="Icon">
	<g>
		<path d="M18.9,6c-0.2-0.6-0.8-1-1.4-1h-11C5.8,5,5.3,5.4,5.1,6L3,12v8c0,0.6,0.4,1,1,1h1c0.6,0,1-0.4,1-1v-1h12v1c0,0.6,0.4,1,1,1
			h1c0.6,0,1-0.4,1-1v-8L18.9,6z M6.5,16C5.7,16,5,15.3,5,14.5S5.7,13,6.5,13C7.3,13,8,13.7,8,14.5S7.3,16,6.5,16z M17.5,16
			c-0.8,0-1.5-0.7-1.5-1.5s0.7-1.5,1.5-1.5c0.8,0,1.5,0.7,1.5,1.5S18.3,16,17.5,16z M5,11l1.5-4.5h11L19,11H5z"/>
		<rect fill="none" width="24" height="24"/>
	</g>
</g>
<g id="Grid" display="none">
	<g display="inline">
	</g>
</g>
</svg>
