<?xml version="1.0" encoding="utf-8"?>
<!-- Generator: Adobe Illustrator 17.1.0, SVG Export Plug-In . SVG Version: 6.00 Build 0)  -->
<!DOCTYPE svg PUBLIC "-//W3C//DTD SVG 1.1//EN" "http://www.w3.org/Graphics/SVG/1.1/DTD/svg11.dtd">
<svg version="1.1" xmlns="http://www.w3.org/2000/svg" xmlns:xlink="http://www.w3.org/1999/xlink" x="0px" y="0px" width="24px"
	 height="24px" viewBox="0 0 24 24" enable-background="new 0 0 24 24" xml:space="preserve">
<g id="Header">
	<g>
		<rect x="-618" y="-696" fill="none" width="1400" height="3600"/>
	</g>
</g>
<g id="Label">
</g>
<g id="Icon">
	<g>
		<rect fill="none" width="24" height="24"/>
		<path d="M16,4.8c1,0,1.8-0.8,1.8-1.8S17,1.2,16,1.2c-1,0-1.8,0.8-1.8,1.8S15,4.8,16,4.8z M19,12c-2.8,0-5,2.2-5,5c0,2.8,2.2,5,5,5
			c2.8,0,5-2.2,5-5C24,14.2,21.8,12,19,12z M19,20.5c-1.9,0-3.5-1.6-3.5-3.5s1.6-3.5,3.5-3.5c1.9,0,3.5,1.6,3.5,3.5
			S20.9,20.5,19,20.5z M14.8,10H19V8.2h-3.2l-1.9-3.3c-0.3-0.5-0.8-0.8-1.5-0.8c-0.5,0-0.9,0.2-1.2,0.5L7.5,8.3C7.2,8.6,7,9,7,9.5
			c0,0.6,0.3,1.2,0.8,1.5l3.4,2v5H13v-6.5l-2.2-1.7l2.3-2.3L14.8,10z M5,12c-2.8,0-5,2.2-5,5c0,2.8,2.2,5,5,5c2.8,0,5-2.2,5-5
			C10,14.2,7.8,12,5,12z M5,20.5c-1.9,0-3.5-1.6-3.5-3.5s1.6-3.5,3.5-3.5c1.9,0,3.5,1.6,3.5,3.5S6.9,20.5,5,20.5z"/>
	</g>
</g>
<g id="Grid" display="none">
	<g display="inline">
	</g>
</g>
</svg>
