<?xml version="1.0" encoding="utf-8"?>
<!-- Generator: Adobe Illustrator 17.1.0, SVG Export Plug-In . SVG Version: 6.00 Build 0)  -->
<!DOCTYPE svg PUBLIC "-//W3C//DTD SVG 1.1//EN" "http://www.w3.org/Graphics/SVG/1.1/DTD/svg11.dtd">
<svg version="1.1" xmlns="http://www.w3.org/2000/svg" xmlns:xlink="http://www.w3.org/1999/xlink" x="0px" y="0px" width="24px"
	 height="24px" viewBox="0 0 24 24" enable-background="new 0 0 24 24" xml:space="preserve">
<g id="Header">
	<g>
		<rect x="-618" y="-1464" fill="none" width="1400" height="3600"/>
	</g>
</g>
<g id="Label">
</g>
<g id="Icon">
	<g>
		<rect fill="none" width="24" height="24"/>
		<path d="M14,3.8c1,0,1.8-0.8,1.8-1.8c0-1-0.8-1.8-1.8-1.8c-1,0-1.8,0.8-1.8,1.8C12.2,3,13,3.8,14,3.8z M14.1,10H19V8.2h-3.6
			l-2-3.3C13.1,4.4,12.5,4,11.9,4c-0.2,0-0.3,0-0.5,0.1L6,5.8V11h1.8V7.3l2.1-0.7L6,22h1.8l2.9-8.1L13,17v5h1.8v-6.4l-2.5-4.5
			L13,8.2L14.1,10z"/>
	</g>
</g>
<g id="Grid" display="none">
	<g display="inline">
	</g>
</g>
</svg>
