<?xml version="1.0" encoding="utf-8"?>
<!-- Generator: Adobe Illustrator 17.1.0, SVG Export Plug-In . SVG Version: 6.00 Build 0)  -->
<!DOCTYPE svg PUBLIC "-//W3C//DTD SVG 1.1//EN" "http://www.w3.org/Graphics/SVG/1.1/DTD/svg11.dtd">
<svg version="1.1" xmlns="http://www.w3.org/2000/svg" xmlns:xlink="http://www.w3.org/1999/xlink" x="0px" y="0px" width="24px"
	 height="24px" viewBox="0 0 24 24" enable-background="new 0 0 24 24" xml:space="preserve">
<g id="Header">
	<g>
		<rect x="-618" y="-1464" fill="none" width="1400" height="3600"/>
	</g>
</g>
<g id="Label">
</g>
<g id="Icon">
	<g>
		<rect fill="none" width="24" height="24"/>
		<path d="M12,22c5,0,9-4,9-9C16,13,12,17,12,22z M5.6,10.2c0,1.4,1.1,2.5,2.5,2.5c0.5,0,1-0.2,1.4-0.4c0,0.1,0,0.1,0,0.2
			c0,1.4,1.1,2.5,2.5,2.5s2.5-1.1,2.5-2.5c0-0.1,0-0.1,0-0.2c0.4,0.3,0.9,0.4,1.4,0.4c1.4,0,2.5-1.1,2.5-2.5c0-1-0.6-1.8-1.4-2.2
			c0.8-0.4,1.4-1.3,1.4-2.2c0-1.4-1.1-2.5-2.5-2.5c-0.5,0-1,0.2-1.4,0.4c0-0.1,0-0.1,0-0.2C14.5,2.1,13.4,1,12,1S9.5,2.1,9.5,3.5
			c0,0.1,0,0.1,0,0.2C9.1,3.4,8.6,3.2,8.1,3.2c-1.4,0-2.5,1.1-2.5,2.5c0,1,0.6,1.8,1.4,2.2C6.2,8.4,5.6,9.3,5.6,10.2z M12,5.5
			c1.4,0,2.5,1.1,2.5,2.5s-1.1,2.5-2.5,2.5S9.5,9.4,9.5,8S10.6,5.5,12,5.5z M3,13c0,5,4,9,9,9C12,17,8,13,3,13z"/>
	</g>
</g>
<g id="Grid" display="none">
	<g display="inline">
	</g>
</g>
</svg>
