<?xml version="1.0" encoding="utf-8"?>
<!-- Generator: Adobe Illustrator 17.1.0, SVG Export Plug-In . SVG Version: 6.00 Build 0)  -->
<!DOCTYPE svg PUBLIC "-//W3C//DTD SVG 1.1//EN" "http://www.w3.org/Graphics/SVG/1.1/DTD/svg11.dtd">
<svg version="1.1" xmlns="http://www.w3.org/2000/svg" xmlns:xlink="http://www.w3.org/1999/xlink" x="0px" y="0px" width="24px"
	 height="24px" viewBox="0 0 24 24" enable-background="new 0 0 24 24" xml:space="preserve">
<g id="Header">
	<g>
		<rect x="-618" y="-568" fill="none" width="1400" height="3600"/>
	</g>
</g>
<g id="Label">
</g>
<g id="Icon">
	<g>
		<rect fill="none" width="24" height="24"/>
		<g>
			<path d="M8.1,13.3l2.8-2.8l-7-7c-1.6,1.6-1.6,4.1,0,5.7L8.1,13.3z"/>
			<path d="M14.9,11.5c1.5,0.7,3.7,0.2,5.3-1.4C22.1,8.2,22.4,5.5,21,4c-1.5-1.5-4.2-1.1-6.1,0.8c-1.6,1.6-2.1,3.7-1.4,5.3
				c-2.2,2.2-9.8,9.8-9.8,9.8l1.4,1.4l6.9-6.9l6.9,6.9l1.4-1.4L13.4,13L14.9,11.5z"/>
		</g>
	</g>
</g>
<g id="Grid" display="none">
	<g display="inline">
	</g>
</g>
</svg>
