<?xml version="1.0" encoding="utf-8"?>
<!-- Generator: Adobe Illustrator 17.1.0, SVG Export Plug-In . SVG Version: 6.00 Build 0)  -->
<!DOCTYPE svg PUBLIC "-//W3C//DTD SVG 1.1//EN" "http://www.w3.org/Graphics/SVG/1.1/DTD/svg11.dtd">
<svg version="1.1" xmlns="http://www.w3.org/2000/svg" xmlns:xlink="http://www.w3.org/1999/xlink" x="0px" y="0px" width="24px"
	 height="24px" viewBox="0 0 24 24" enable-background="new 0 0 24 24" xml:space="preserve">
<g id="Header">
	<g>
		<rect x="-618" y="-2744" fill="none" width="1400" height="3600"/>
	</g>
</g>
<g id="Label">
</g>
<g id="Icon">
	<g>
		<g>
			<g>
				<rect fill="none" width="24" height="24"/>
			</g>
		</g>
		<g>
			<path d="M21.4,11.6l-9-9C12.1,2.2,11.6,2,11,2H4C2.9,2,2,2.9,2,4v7c0,0.6,0.2,1.1,0.6,1.4l9,9c0.4,0.4,0.9,0.6,1.4,0.6
				c0.6,0,1.1-0.2,1.4-0.6l7-7c0.4-0.4,0.6-0.9,0.6-1.4C22,12.4,21.8,11.9,21.4,11.6z M5.5,7C4.7,7,4,6.3,4,5.5S4.7,4,5.5,4
				C6.3,4,7,4.7,7,5.5S6.3,7,5.5,7z"/>
		</g>
	</g>
</g>
<g id="Grid" display="none">
	<g display="inline">
	</g>
</g>
</svg>
