<?xml version="1.0" encoding="utf-8"?>
<!-- Generator: Adobe Illustrator 17.1.0, SVG Export Plug-In . SVG Version: 6.00 Build 0)  -->
<!DOCTYPE svg PUBLIC "-//W3C//DTD SVG 1.1//EN" "http://www.w3.org/Graphics/SVG/1.1/DTD/svg11.dtd">
<svg version="1.1" xmlns="http://www.w3.org/2000/svg" xmlns:xlink="http://www.w3.org/1999/xlink" x="0px" y="0px" width="24px"
	 height="24px" viewBox="0 0 24 24" enable-background="new 0 0 24 24" xml:space="preserve">
<g id="Header">
	<g>
		<rect x="-618" y="-1976" fill="none" width="1400" height="3600"/>
	</g>
</g>
<g id="Label">
</g>
<g id="Icon">
	<g>
		<g>
			<path d="M20.5,3c-0.1,0-0.1,0-0.2,0L15,5.1L9,3L3.4,4.9C3.2,5,3,5.1,3,5.4v15.1C3,20.8,3.2,21,3.5,21c0.1,0,0.1,0,0.2,0L9,18.9
				l6,2.1l5.6-1.9c0.2-0.1,0.4-0.3,0.4-0.5V3.5C21,3.2,20.8,3,20.5,3z M15,19l-6-2.1V5l6,2.1V19z"/>
		</g>
		<rect fill="none" width="24" height="24"/>
	</g>
</g>
<g id="Grid" display="none">
	<g display="inline">
	</g>
</g>
</svg>
