<?xml version="1.0" encoding="utf-8"?>
<!-- Generator: Adobe Illustrator 17.1.0, SVG Export Plug-In . SVG Version: 6.00 Build 0)  -->
<!DOCTYPE svg PUBLIC "-//W3C//DTD SVG 1.1//EN" "http://www.w3.org/Graphics/SVG/1.1/DTD/svg11.dtd">
<svg version="1.1" xmlns="http://www.w3.org/2000/svg" xmlns:xlink="http://www.w3.org/1999/xlink" x="0px" y="0px" width="24px"
	 height="24px" viewBox="0 0 24 24" enable-background="new 0 0 24 24" xml:space="preserve">
<g id="Header">
	<g>
		<rect x="-618" y="-2616" fill="none" width="1400" height="3600"/>
	</g>
</g>
<g id="Label">
</g>
<g id="Icon">
	<g>
		<rect fill="none" width="24" height="24"/>
		<g>
			<path fill="none" d="M15.4,6.4l-1.8-1.8c-0.2-0.2-0.5-0.2-0.7,0L6,11.5V14h2.5l6.9-6.9C15.5,6.9,15.5,6.6,15.4,6.4z"/>
			<path d="M20,2H4C2.9,2,2,2.9,2,4l0,18l4-4h14c1.1,0,2-0.9,2-2V4C22,2.9,21.1,2,20,2z M6,14v-2.5l6.9-6.9c0.2-0.2,0.5-0.2,0.7,0
				l1.8,1.8c0.2,0.2,0.2,0.5,0,0.7L8.5,14H6z M18,14h-7.5l2-2H18V14z"/>
		</g>
	</g>
</g>
<g id="Grid" display="none">
	<g display="inline">
	</g>
</g>
</svg>
