<?xml version="1.0" encoding="utf-8"?>
<!-- Generator: Adobe Illustrator 17.1.0, SVG Export Plug-In . SVG Version: 6.00 Build 0)  -->
<!DOCTYPE svg PUBLIC "-//W3C//DTD SVG 1.1//EN" "http://www.w3.org/Graphics/SVG/1.1/DTD/svg11.dtd">
<svg version="1.1" xmlns="http://www.w3.org/2000/svg" xmlns:xlink="http://www.w3.org/1999/xlink" x="0px" y="0px" width="24px"
	 height="24px" viewBox="0 0 24 24" enable-background="new 0 0 24 24" xml:space="preserve">
<g id="Header">
	<g>
		<rect x="-618" y="-1720" fill="none" width="1400" height="3600"/>
	</g>
</g>
<g id="Label">
</g>
<g id="Icon">
	<g>
		<path d="M16.5,6v11.5c0,2.2-1.8,4-4,4s-4-1.8-4-4V5c0-1.4,1.1-2.5,2.5-2.5s2.5,1.1,2.5,2.5v10.5c0,0.6-0.4,1-1,1s-1-0.4-1-1V6H10
			v9.5c0,1.4,1.1,2.5,2.5,2.5s2.5-1.1,2.5-2.5V5c0-2.2-1.8-4-4-4S7,2.8,7,5v12.5c0,3,2.5,5.5,5.5,5.5s5.5-2.5,5.5-5.5V6H16.5z"/>
		<rect fill="none" width="24" height="24"/>
	</g>
</g>
<g id="Grid" display="none">
	<g display="inline">
	</g>
</g>
</svg>
