<?xml version="1.0" encoding="utf-8"?>
<!-- Generator: Adobe Illustrator 17.1.0, SVG Export Plug-In . SVG Version: 6.00 Build 0)  -->
<!DOCTYPE svg PUBLIC "-//W3C//DTD SVG 1.1//EN" "http://www.w3.org/Graphics/SVG/1.1/DTD/svg11.dtd">
<svg version="1.1" xmlns="http://www.w3.org/2000/svg" xmlns:xlink="http://www.w3.org/1999/xlink" x="0px" y="0px" width="24px"
	 height="24px" viewBox="0 0 24 24" enable-background="new 0 0 24 24" xml:space="preserve">
<g id="Header">
	<g>
		<rect x="-618" y="-568" fill="none" width="1400" height="3600"/>
	</g>
</g>
<g id="Label">
	<g>
		<path d="M11.8,10.9c-2.3-0.6-3-1.2-3-2.1c0-1.1,1-1.9,2.7-1.9c1.8,0,2.4,0.8,2.5,2.1h2.2c-0.1-1.7-1.1-3.3-3.2-3.8V3h-3v2.2
			C8.1,5.6,6.5,6.8,6.5,8.8c0,2.3,1.9,3.5,4.7,4.1c2.5,0.6,3,1.5,3,2.4c0,0.7-0.5,1.8-2.7,1.8c-2.1,0-2.9-0.9-3-2.1H6.3
			c0.1,2.2,1.8,3.4,3.7,3.8V21h3v-2.2c1.9-0.4,3.5-1.5,3.5-3.6C16.5,12.5,14.1,11.5,11.8,10.9z"/>
		<rect fill="none" width="24" height="24"/>
	</g>
</g>
<g id="Icon">
</g>
<g id="Grid" display="none">
	<g display="inline">
	</g>
</g>
</svg>
