<?xml version="1.0" encoding="utf-8"?>
<!-- Generator: Adobe Illustrator 17.1.0, SVG Export Plug-In . SVG Version: 6.00 Build 0)  -->
<!DOCTYPE svg PUBLIC "-//W3C//DTD SVG 1.1//EN" "http://www.w3.org/Graphics/SVG/1.1/DTD/svg11.dtd">
<svg version="1.1" xmlns="http://www.w3.org/2000/svg" xmlns:xlink="http://www.w3.org/1999/xlink" x="0px" y="0px" width="24px"
	 height="24px" viewBox="0 0 24 24" enable-background="new 0 0 24 24" xml:space="preserve">
<g id="Header">
	<g>
		<rect x="-618" y="-1848" fill="none" width="1400" height="3600"/>
	</g>
</g>
<g id="Label">
	<g>
		<path d="M15,21h2v-2h-2V21z M19,21h2v-2h-2V21z M7,21h2v-2H7V21z M11,21h2v-2h-2V21z M19,17h2v-2h-2V17z M19,13h2v-2h-2V13z M3,3
			v18h2V5h16V3H3z M19,9h2V7h-2V9z"/>
		<rect fill="none" width="24" height="24"/>
	</g>
</g>
<g id="Icon">
</g>
<g id="Grid" display="none">
	<g display="inline">
	</g>
</g>
</svg>
