<?xml version="1.0" encoding="utf-8"?>
<!-- Generator: Adobe Illustrator 17.1.0, SVG Export Plug-In . SVG Version: 6.00 Build 0)  -->
<!DOCTYPE svg PUBLIC "-//W3C//DTD SVG 1.1//EN" "http://www.w3.org/Graphics/SVG/1.1/DTD/svg11.dtd">
<svg version="1.1" xmlns="http://www.w3.org/2000/svg" xmlns:xlink="http://www.w3.org/1999/xlink" x="0px" y="0px" width="24px"
	 height="24px" viewBox="0 0 24 24" enable-background="new 0 0 24 24" xml:space="preserve">
<g id="Header">
	<g>
		<rect x="-618" y="-2488" fill="none" width="1400" height="3600"/>
	</g>
</g>
<g id="Label">
	<g>
		<rect fill="none" width="24" height="24"/>
		<rect fill="none" width="24" height="24"/>
		<rect fill="none" width="24" height="24"/>
		<path d="M18,14c0-4-6-10.8-6-10.8s-1.3,1.5-2.7,3.5l8.6,8.6C17.9,14.9,18,14.4,18,14z M17.1,17.1l-4.6-4.6L5.3,5.3L4,6.5l3.3,3.3
			C6.6,11.3,6,12.8,6,14c0,3.3,2.7,6,6,6c1.5,0,2.9-0.6,4-1.5l2.6,2.6l1.3-1.3L17.1,17.1z"/>
	</g>
</g>
<g id="Icon">
</g>
<g id="Grid" display="none">
	<g display="inline">
	</g>
</g>
</svg>
