<?xml version="1.0" encoding="utf-8"?>
<!-- Generator: Adobe Illustrator 17.1.0, SVG Export Plug-In . SVG Version: 6.00 Build 0)  -->
<!DOCTYPE svg PUBLIC "-//W3C//DTD SVG 1.1//EN" "http://www.w3.org/Graphics/SVG/1.1/DTD/svg11.dtd">
<svg version="1.1" xmlns="http://www.w3.org/2000/svg" xmlns:xlink="http://www.w3.org/1999/xlink" x="0px" y="0px" width="24px"
	 height="24px" viewBox="0 0 24 24" enable-background="new 0 0 24 24" xml:space="preserve">
<g id="Header">
	<g>
		<rect x="-618" y="-1976" fill="none" width="1400" height="3600"/>
	</g>
</g>
<g id="Label">
	<g>
		<path d="M15.6,10.8c1-0.7,1.7-1.8,1.7-2.8c0-2.3-1.7-4-4-4H7v14h7c2.1,0,3.7-1.7,3.7-3.8C17.8,12.7,16.9,11.4,15.6,10.8z M10,6.5
			h3c0.8,0,1.5,0.7,1.5,1.5S13.8,9.5,13,9.5h-3V6.5z M13.5,15.5H10v-3h3.5c0.8,0,1.5,0.7,1.5,1.5S14.3,15.5,13.5,15.5z"/>
		<rect fill="none" width="24" height="24"/>
	</g>
</g>
<g id="Icon">
</g>
<g id="Grid" display="none">
	<g display="inline">
	</g>
</g>
</svg>
