<?xml version="1.0" encoding="utf-8"?>
<!-- Generator: Adobe Illustrator 17.1.0, SVG Export Plug-In . SVG Version: 6.00 Build 0)  -->
<!DOCTYPE svg PUBLIC "-//W3C//DTD SVG 1.1//EN" "http://www.w3.org/Graphics/SVG/1.1/DTD/svg11.dtd">
<svg version="1.1" xmlns="http://www.w3.org/2000/svg" xmlns:xlink="http://www.w3.org/1999/xlink" x="0px" y="0px" width="24px"
	 height="24px" viewBox="0 0 24 24" enable-background="new 0 0 24 24" xml:space="preserve">
<g id="Header">
	<g>
		<rect x="-618" y="-440" fill="none" width="1400" height="3600"/>
	</g>
</g>
<g id="Label">
</g>
<g id="Icon">
	<g>
		<rect x="0" fill="none" width="24" height="24"/>
		<g>
			<polygon points="7.5,5.6 10,7 8.6,4.5 10,2 7.5,3.4 5,2 6.4,4.5 5,7 			"/>
			<polygon points="19.5,15.4 17,14 18.4,16.5 17,19 19.5,17.6 22,19 20.6,16.5 22,14 			"/>
			<polygon points="22,2 19.5,3.4 17,2 18.4,4.5 17,7 19.5,5.6 22,7 20.6,4.5 			"/>
			<path d="M14.4,7.3c-0.4-0.4-1-0.4-1.4,0L1.3,19c-0.4,0.4-0.4,1,0,1.4l2.3,2.3c0.4,0.4,1,0.4,1.4,0L16.7,11c0.4-0.4,0.4-1,0-1.4
				L14.4,7.3z M13.3,12.8l-2.1-2.1l2.4-2.4l2.1,2.1L13.3,12.8z"/>
		</g>
	</g>
</g>
<g id="Grid" display="none">
	<g display="inline">
	</g>
</g>
</svg>
