<?xml version="1.0" encoding="utf-8"?>
<!-- Generator: Adobe Illustrator 17.1.0, SVG Export Plug-In . SVG Version: 6.00 Build 0)  -->
<!DOCTYPE svg PUBLIC "-//W3C//DTD SVG 1.1//EN" "http://www.w3.org/Graphics/SVG/1.1/DTD/svg11.dtd">
<svg version="1.1" xmlns="http://www.w3.org/2000/svg" xmlns:xlink="http://www.w3.org/1999/xlink" x="0px" y="0px" width="24px"
	 height="24px" viewBox="0 0 24 24" enable-background="new 0 0 24 24" xml:space="preserve">
<g id="Header">
	<g>
		<rect x="-618" y="-568" fill="none" width="1400" height="3600"/>
	</g>
</g>
<g id="Label">
</g>
<g id="Icon">
	<g>
		<rect x="0" fill="none" width="24" height="24"/>
		<g>
			<path d="M9.4,10.5l4.8-8.3C13.5,2.1,12.7,2,12,2C9.6,2,7.4,2.8,5.7,4.3l3.7,6.3L9.4,10.5z M21.5,9c-0.9-2.9-3.1-5.3-6-6.3L11.9,9
				H21.5z M21.8,10h-7.5l0.3,0.5l4.8,8.3C21,17,22,14.6,22,12C22,11.3,21.9,10.6,21.8,10z M8.5,12L4.6,5.2C3,7,2,9.4,2,12
				c0,0.7,0.1,1.4,0.2,2h7.5L8.5,12z M2.5,15c0.9,2.9,3.1,5.3,6,6.3l3.7-6.3H2.5z M13.7,15l-3.9,6.8c0.7,0.2,1.4,0.2,2.2,0.2
				c2.4,0,4.6-0.8,6.3-2.3l-3.7-6.3L13.7,15z"/>
		</g>
	</g>
</g>
<g id="Grid" display="none">
	<g display="inline">
	</g>
</g>
</svg>
