<?xml version="1.0" encoding="utf-8"?>
<!-- Generator: Adobe Illustrator 17.1.0, SVG Export Plug-In . SVG Version: 6.00 Build 0)  -->
<!DOCTYPE svg PUBLIC "-//W3C//DTD SVG 1.1//EN" "http://www.w3.org/Graphics/SVG/1.1/DTD/svg11.dtd">
<svg version="1.1" xmlns="http://www.w3.org/2000/svg" xmlns:xlink="http://www.w3.org/1999/xlink" x="0px" y="0px" width="24px"
	 height="24px" viewBox="0 0 24 24" enable-background="new 0 0 24 24" xml:space="preserve">
<g id="Header">
	<g>
		<rect x="-618" y="-824" fill="none" width="1400" height="3600"/>
	</g>
</g>
<g id="Label">
</g>
<g id="Icon">
	<g>
		<rect x="0" fill="none" width="24" height="24"/>
		<path d="M14,5c0-1.1-0.9-2-2-2h-1V2c0-0.6-0.4-1-1-1H6C5.4,1,5,1.4,5,2v1H4C2.9,3,2,3.9,2,5v15c0,1.1,0.9,2,2,2h8c1.1,0,2-0.9,2-2
			h8V5H14z M12,18h-2v-2h2V18z M12,9h-2V7h2V9z M16,18h-2v-2h2V18z M16,9h-2V7h2V9z M20,18h-2v-2h2V18z M20,9h-2V7h2V9z"/>
	</g>
</g>
<g id="Grid" display="none">
	<g display="inline">
	</g>
</g>
</svg>
