<?xml version="1.0" encoding="utf-8"?>
<!-- Generator: Adobe Illustrator 17.1.0, SVG Export Plug-In . SVG Version: 6.00 Build 0)  -->
<!DOCTYPE svg PUBLIC "-//W3C//DTD SVG 1.1//EN" "http://www.w3.org/Graphics/SVG/1.1/DTD/svg11.dtd">
<svg version="1.1" xmlns="http://www.w3.org/2000/svg" xmlns:xlink="http://www.w3.org/1999/xlink" x="0px" y="0px" width="24px"
	 height="24px" viewBox="0 0 24 24" enable-background="new 0 0 24 24" xml:space="preserve">
<g id="Header">
	<g>
		<rect x="-618" y="-2360" fill="none" width="1400" height="3600"/>
	</g>
</g>
<g id="Label">
</g>
<g id="Icon">
	<g>
		<path d="M12,3c-5,0-9,4-9,9s4,9,9,9c0.8,0,1.5-0.7,1.5-1.5c0-0.4-0.1-0.7-0.4-1c-0.2-0.3-0.4-0.6-0.4-1c0-0.8,0.7-1.5,1.5-1.5H16
			c2.8,0,5-2.2,5-5C21,6.6,17,3,12,3z M6.5,12C5.7,12,5,11.3,5,10.5S5.7,9,6.5,9C7.3,9,8,9.7,8,10.5S7.3,12,6.5,12z M9.5,8
			C8.7,8,8,7.3,8,6.5S8.7,5,9.5,5C10.3,5,11,5.7,11,6.5S10.3,8,9.5,8z M14.5,8C13.7,8,13,7.3,13,6.5S13.7,5,14.5,5
			C15.3,5,16,5.7,16,6.5S15.3,8,14.5,8z M17.5,12c-0.8,0-1.5-0.7-1.5-1.5S16.7,9,17.5,9c0.8,0,1.5,0.7,1.5,1.5S18.3,12,17.5,12z"/>
		<rect x="0" fill="none" width="24" height="24"/>
	</g>
</g>
<g id="Grid" display="none">
	<g display="inline">
	</g>
</g>
</svg>
