<?xml version="1.0" encoding="utf-8"?>
<!-- Generator: Adobe Illustrator 17.1.0, SVG Export Plug-In . SVG Version: 6.00 Build 0)  -->
<!DOCTYPE svg PUBLIC "-//W3C//DTD SVG 1.1//EN" "http://www.w3.org/Graphics/SVG/1.1/DTD/svg11.dtd">
<svg version="1.1" xmlns="http://www.w3.org/2000/svg" xmlns:xlink="http://www.w3.org/1999/xlink" x="0px" y="0px" width="48px"
	 height="48px" viewBox="0 0 48 48" enable-background="new 0 0 48 48" xml:space="preserve">
<g id="Header">
	<g>
		<rect x="-838" y="-568" fill="none" width="1400" height="3600"/>
	</g>
</g>
<g id="Label">
</g>
<g id="Icon">
	<g>
		<rect x="0" fill="none" width="48" height="48"/>
		<path d="M34,22c1.1,0,2-0.9,2-2c0-1.1-0.9-2-2-2s-2,0.9-2,2C32,21.1,32.9,22,34,22z M30,32c3.7,0,6.7-2.6,7.6-6H22.4
			C23.3,29.4,26.3,32,30,32z M26,22c1.1,0,2-0.9,2-2c0-1.1-0.9-2-2-2c-1.1,0-2,0.9-2,2C24,21.1,24.9,22,26,22z M44,6L15.3,6
			c-1.3,0-2.5,0.6-3.2,1.6L0,24l12,16.4c0.7,1,1.9,1.6,3.2,1.6H44c2.2,0,4-1.8,4-4V10C48,7.8,46.2,6,44,6z M8,26c-1.1,0-2-0.9-2-2
			c0-1.1,0.9-2,2-2s2,0.9,2,2C10,25.1,9.1,26,8,26z M30,36c-6.6,0-12-5.4-12-12c0-6.6,5.4-12,12-12c6.6,0,12,5.4,12,12
			C42,30.6,36.6,36,30,36z"/>
	</g>
</g>
<g id="Grid" display="none">
	<g display="inline">
		<line fill="none" stroke="#00E5FF" stroke-width="0.1" stroke-miterlimit="10" x1="42" y1="-568" x2="42" y2="2984"/>
	</g>
</g>
</svg>
