<?xml version="1.0" encoding="utf-8"?>
<!-- Generator: Adobe Illustrator 17.1.0, SVG Export Plug-In . SVG Version: 6.00 Build 0)  -->
<!DOCTYPE svg PUBLIC "-//W3C//DTD SVG 1.1//EN" "http://www.w3.org/Graphics/SVG/1.1/DTD/svg11.dtd">
<svg version="1.1" xmlns="http://www.w3.org/2000/svg" xmlns:xlink="http://www.w3.org/1999/xlink" x="0px" y="0px" width="24px"
	 height="24px" viewBox="0 0 24 24" enable-background="new 0 0 24 24" xml:space="preserve">
<g id="Header">
	<g>
		<rect x="-618" y="-824" fill="none" width="1400" height="3600"/>
	</g>
</g>
<g id="Label">
</g>
<g id="Icon">
	<g>
		<rect x="0" fill="none" width="24" height="24"/>
		<path d="M6.9,12.6h2.3L8,9L6.9,12.6z M22,7l-1.2,6.3L19.3,7h-1.6l-1.5,6.3L15,7h-0.8C12.8,5.2,10.5,4,8,4c-4.4,0-8,3.6-8,8
			s3.6,8,8,8c3.1,0,5.8-1.8,7.2-4.4l0.1,0.4H17l1.5-6.1L20,16h1.8l2-9H22z M10.3,16l-0.7-2H6.4l-0.7,2H3.8L7,7h2l3.2,9H10.3z"/>
	</g>
</g>
<g id="Grid" display="none">
	<g display="inline">
	</g>
</g>
</svg>
