<?xml version="1.0" encoding="utf-8"?>
<!-- Generator: Adobe Illustrator 17.1.0, SVG Export Plug-In . SVG Version: 6.00 Build 0)  -->
<!DOCTYPE svg PUBLIC "-//W3C//DTD SVG 1.1//EN" "http://www.w3.org/Graphics/SVG/1.1/DTD/svg11.dtd">
<svg version="1.1" xmlns="http://www.w3.org/2000/svg" xmlns:xlink="http://www.w3.org/1999/xlink" x="0px" y="0px" width="24px"
	 height="24px" viewBox="0 0 24 24" enable-background="new 0 0 24 24" xml:space="preserve">
<g id="Header">
	<g>
		<rect x="-618" y="-1080" fill="none" width="1400" height="3600"/>
	</g>
</g>
<g id="Label">
</g>
<g id="Icon">
	<g>
		<rect x="0" fill="none" width="24" height="24"/>
		<path d="M3.5,18.5L5,20l1.8-1.8l-1.4-1.4L3.5,18.5z M11,22.4c0.3,0,2,0,2,0v-2.9h-2V22.4z M4,10.5H1v2h3V10.5z M15,6.3V1.5H9v4.8
			c-1.8,1-3,3-3,5.2c0,3.3,2.7,6,6,6s6-2.7,6-6C18,9.3,16.8,7.3,15,6.3z M20,10.5v2h3v-2H20z M17.2,18.2L19,20l1.4-1.4l-1.8-1.8
			L17.2,18.2z"/>
	</g>
</g>
<g id="Grid" display="none">
	<g display="inline">
	</g>
</g>
</svg>
