<?xml version="1.0" encoding="utf-8"?>
<!-- Generator: Adobe Illustrator 17.1.0, SVG Export Plug-In . SVG Version: 6.00 Build 0)  -->
<!DOCTYPE svg PUBLIC "-//W3C//DTD SVG 1.1//EN" "http://www.w3.org/Graphics/SVG/1.1/DTD/svg11.dtd">
<svg version="1.1" xmlns="http://www.w3.org/2000/svg" xmlns:xlink="http://www.w3.org/1999/xlink" x="0px" y="0px" width="24px"
	 height="24px" viewBox="0 0 24 24" enable-background="new 0 0 24 24" xml:space="preserve">
<g id="Header">
	<g>
		<rect x="-618" y="-1208" fill="none" width="1400" height="3600"/>
	</g>
</g>
<g id="Label">
</g>
<g id="Icon">
	<g>
		<rect x="0" fill="none" width="24" height="24"/>
		<path d="M5,14.5h14v-6H5V14.5z M11,0.6v2.9h2V0.6H11z M19,3l-1.8,1.8l1.4,1.4l1.8-1.8L19,3z M13,22.4v-2.9h-2v2.9
			C11.3,22.5,13,22.4,13,22.4z M20.5,18.5l-1.8-1.8l-1.4,1.4L19,20L20.5,18.5z M3.5,4.5l1.8,1.8l1.4-1.4L5,3L3.5,4.5z M5,20l1.8-1.8
			l-1.4-1.4l-1.8,1.8L5,20z"/>
	</g>
</g>
<g id="Grid" display="none">
	<g display="inline">
	</g>
</g>
</svg>
