<?xml version="1.0" encoding="utf-8"?>
<!-- Generator: Adobe Illustrator 17.1.0, SVG Export Plug-In . SVG Version: 6.00 Build 0)  -->
<!DOCTYPE svg PUBLIC "-//W3C//DTD SVG 1.1//EN" "http://www.w3.org/Graphics/SVG/1.1/DTD/svg11.dtd">
<svg version="1.1" xmlns="http://www.w3.org/2000/svg" xmlns:xlink="http://www.w3.org/1999/xlink" x="0px" y="0px" width="24px"
	 height="24px" viewBox="0 0 24 24" enable-background="new 0 0 24 24" xml:space="preserve">
<g id="Header">
	<g>
		<rect x="-618" y="-568" fill="none" width="1400" height="3600"/>
	</g>
</g>
<g id="Labels">
</g>
<g id="Icon">
	<g>
		<g>
			<rect fill="none" width="24" height="24"/>
		</g>
		<path d="M22,5.7l-4.6-3.9l-1.3,1.5l4.6,3.9L22,5.7z M7.9,3.4L6.6,1.9L2,5.7l1.3,1.5L7.9,3.4z M12.5,8H11v6l4.7,2.9l0.8-1.2l-4-2.4
			V8z M12,4c-5,0-9,4-9,9c0,5,4,9,9,9s9-4,9-9C21,8,17,4,12,4z M12,20c-3.9,0-7-3.1-7-7c0-3.9,3.1-7,7-7c3.9,0,7,3.1,7,7
			C19,16.9,15.9,20,12,20z"/>
	</g>
</g>
<g id="Grid" display="none">
	<g display="inline">
	</g>
</g>
</svg>
