<?xml version="1.0" encoding="utf-8"?>
<!-- Generator: Adobe Illustrator 17.1.0, SVG Export Plug-In . SVG Version: 6.00 Build 0)  -->
<!DOCTYPE svg PUBLIC "-//W3C//DTD SVG 1.1//EN" "http://www.w3.org/Graphics/SVG/1.1/DTD/svg11.dtd">
<svg version="1.1" xmlns="http://www.w3.org/2000/svg" xmlns:xlink="http://www.w3.org/1999/xlink" x="0px" y="0px" width="24px"
	 height="24px" viewBox="0 0 24 24" enable-background="new 0 0 24 24" xml:space="preserve">
<g id="Header">
	<g>
		<rect x="-618" y="-824" fill="none" width="1400" height="3600"/>
	</g>
</g>
<g id="Labels">
</g>
<g id="Icon">
	<g>
		<g>
			<rect fill="none" width="24" height="24"/>
		</g>
		<g>
			<rect fill="none" width="24" height="24"/>
			<rect fill="none" width="24" height="24"/>
		</g>
		<path d="M13,9V3.5C13,2.7,12.3,2,11.5,2C10.7,2,10,2.7,10,3.5v3.7l7.8,7.8l3.2,1v-2L13,9z M3,5.3l5,5L2,14v2l8-2.5V19l-2,1.5V22
			l3.5-1l3.5,1v-1.5L13,19v-3.7l5.7,5.7l1.3-1.3L4.3,4L3,5.3z"/>
	</g>
</g>
<g id="Grid" display="none">
	<g display="inline">
	</g>
</g>
</svg>
