<?xml version="1.0" encoding="utf-8"?>
<!-- Generator: Adobe Illustrator 17.1.0, SVG Export Plug-In . SVG Version: 6.00 Build 0)  -->
<!DOCTYPE svg PUBLIC "-//W3C//DTD SVG 1.1//EN" "http://www.w3.org/Graphics/SVG/1.1/DTD/svg11.dtd">
<svg version="1.1" xmlns="http://www.w3.org/2000/svg" xmlns:xlink="http://www.w3.org/1999/xlink" x="0px" y="0px" width="24px"
	 height="24px" viewBox="0 0 24 24" enable-background="new 0 0 24 24" xml:space="preserve">
<g id="Header">
	<g>
		<rect x="-618" y="-3384" fill="none" width="1400" height="3600"/>
	</g>
</g>
<g id="Labels">
</g>
<g id="Icon">
	<g>
		<g>
			<rect fill="none" width="24" height="24"/>
		</g>
		<path d="M14.2,12l2.3,2.3c0.3-0.7,0.4-1.5,0.4-2.3c0-0.8-0.2-1.6-0.4-2.3L14.2,12z M19.5,6.7L18.3,8c0.6,1.2,1,2.6,1,4
			s-0.4,2.8-1,4l1.2,1.2c1-1.5,1.5-3.4,1.5-5.3C21,10,20.5,8.2,19.5,6.7z M15.7,7.7L10,2H9v7.6L4.4,5L3,6.4L8.6,12L3,17.6L4.4,19
			L9,14.4V22h1l5.7-5.7L11.4,12L15.7,7.7z M11,5.8l1.9,1.9L11,9.6V5.8z M12.9,16.3L11,18.2v-3.8L12.9,16.3z"/>
	</g>
</g>
<g id="Grid" display="none">
	<g display="inline">
	</g>
</g>
</svg>
