<?xml version="1.0" encoding="utf-8"?>
<!-- Generator: Adobe Illustrator 17.1.0, SVG Export Plug-In . SVG Version: 6.00 Build 0)  -->
<!DOCTYPE svg PUBLIC "-//W3C//DTD SVG 1.1//EN" "http://www.w3.org/Graphics/SVG/1.1/DTD/svg11.dtd">
<svg version="1.1" xmlns="http://www.w3.org/2000/svg" xmlns:xlink="http://www.w3.org/1999/xlink" x="0px" y="0px" width="48px"
	 height="48px" viewBox="0 0 48 48" enable-background="new 0 0 48 48" xml:space="preserve">
<g id="Header">
	<g>
		<rect x="-838" y="-952" fill="none" width="1400" height="3600"/>
	</g>
</g>
<g id="Labels">
</g>
<g id="Icon">
	<g>
		<g>
			<rect y="-0.2" fill="none" width="48" height="48"/>
		</g>
		<path d="M26,11.8l3.8,3.8l-3.2,3.2l2.8,2.8l6-6L24,4.2h-2v10.1l4,4V11.8z M10.8,8.2L8,11l13.2,13.2L10,35.3l2.8,2.8L22,29v15.2h2
			l8.6-8.6l4.6,4.6l2.8-2.8L10.8,8.2z M26,36.5V29l3.8,3.8L26,36.5z"/>
	</g>
</g>
<g id="Grid" display="none">
	<g display="inline">
		<line fill="none" stroke="#00E5FF" stroke-width="0.1" stroke-miterlimit="10" x1="42" y1="-952" x2="42" y2="2600"/>
	</g>
</g>
</svg>
