<?xml version="1.0" encoding="utf-8"?>
<!-- Generator: Adobe Illustrator 17.1.0, SVG Export Plug-In . SVG Version: 6.00 Build 0)  -->
<!DOCTYPE svg PUBLIC "-//W3C//DTD SVG 1.1//EN" "http://www.w3.org/Graphics/SVG/1.1/DTD/svg11.dtd">
<svg version="1.1" xmlns="http://www.w3.org/2000/svg" xmlns:xlink="http://www.w3.org/1999/xlink" x="0px" y="0px" width="48px"
	 height="48px" viewBox="0 0 48 48" enable-background="new 0 0 48 48" xml:space="preserve">
<g id="Header">
	<g>
		<rect x="-838" y="-568" fill="none" width="1400" height="3600"/>
	</g>
</g>
<g id="Labels">
</g>
<g id="Icon">
	<g>
		<g>
			<g>
				<g>
					<rect fill="none" width="48" height="48"/>
				</g>
			</g>
		</g>
		<path d="M21.7,25.3h4.6L24,18L21.7,25.3z M40,17.4V8h-9.4L24,1.4L17.4,8H8v9.4L1.4,24L8,30.6V40h9.4l6.6,6.6l6.6-6.6H40v-9.4
			l6.6-6.6L40,17.4z M28.6,32l-1.4-4h-6.4l-1.4,4h-3.8L22,14h4l6.4,18H28.6z"/>
	</g>
</g>
<g id="Grid" display="none">
	<g display="inline">
		<line fill="none" stroke="#00E5FF" stroke-width="0.1" stroke-miterlimit="10" x1="42" y1="-568" x2="42" y2="2984"/>
	</g>
</g>
</svg>
