<?xml version="1.0" encoding="utf-8"?>
<!-- Generator: Adobe Illustrator 17.1.0, SVG Export Plug-In . SVG Version: 6.00 Build 0)  -->
<!DOCTYPE svg PUBLIC "-//W3C//DTD SVG 1.1//EN" "http://www.w3.org/Graphics/SVG/1.1/DTD/svg11.dtd">
<svg version="1.1" xmlns="http://www.w3.org/2000/svg" xmlns:xlink="http://www.w3.org/1999/xlink" x="0px" y="0px" width="48px"
	 height="48px" viewBox="0 0 48 48" enable-background="new 0 0 48 48" xml:space="preserve">
<g id="Header">
	<g>
		<rect x="-838" y="-1080" fill="none" width="1400" height="3600"/>
	</g>
</g>
<g id="Labels">
</g>
<g id="Icon">
	<g>
		<rect fill="none" width="48" height="48"/>
		<path d="M26,4.1v6.1c6.8,1,12,6.8,12,13.8c0,1.8-0.4,3.5-1,5.1l5.2,3.1c1.1-2.5,1.8-5.2,1.8-8.1C44,13.6,36.1,5.1,26,4.1z M24,38
			c-7.7,0-14-6.3-14-14c0-7.1,5.2-12.9,12-13.8V4.1C11.9,5.1,4,13.6,4,24c0,11,8.9,20,20,20c6.6,0,12.5-3.2,16.1-8.2l-5.2-3.1
			C32.3,36,28.4,38,24,38z"/>
	</g>
</g>
<g id="Grid" display="none">
	<g display="inline">
		<line fill="none" stroke="#00E5FF" stroke-width="0.1" stroke-miterlimit="10" x1="42" y1="-1080" x2="42" y2="2472"/>
	</g>
</g>
</svg>
