<?xml version="1.0" encoding="utf-8"?>
<!-- Generator: Adobe Illustrator 17.1.0, SVG Export Plug-In . SVG Version: 6.00 Build 0)  -->
<!DOCTYPE svg PUBLIC "-//W3C//DTD SVG 1.1//EN" "http://www.w3.org/Graphics/SVG/1.1/DTD/svg11.dtd">
<svg version="1.1" xmlns="http://www.w3.org/2000/svg" xmlns:xlink="http://www.w3.org/1999/xlink" x="0px" y="0px" width="24px"
	 height="24px" viewBox="0 0 24 24" enable-background="new 0 0 24 24" xml:space="preserve">
<g id="Header">
	<g>
		<rect x="-618" y="-1080" fill="none" width="1400" height="3600"/>
	</g>
</g>
<g id="Labels">
</g>
<g id="Icon">
	<g>
		<rect fill="none" width="24" height="24"/>
		<path d="M13,2.1v3c3.4,0.5,6,3.4,6,6.9c0,0.9-0.2,1.7-0.5,2.5l2.6,1.5c0.6-1.2,0.9-2.6,0.9-4.1C22,6.8,18.1,2.6,13,2.1z M12,19
			c-3.9,0-7-3.1-7-7c0-3.5,2.6-6.4,6-6.9v-3C5.9,2.5,2,6.8,2,12c0,5.5,4.5,10,10,10c3.3,0,6.2-1.6,8.1-4.1l-2.6-1.5
			C16.2,18,14.2,19,12,19z"/>
	</g>
</g>
<g id="Grid" display="none">
	<g display="inline">
	</g>
</g>
</svg>
