<?xml version="1.0" encoding="utf-8"?>
<!-- Generator: Adobe Illustrator 17.1.0, SVG Export Plug-In . SVG Version: 6.00 Build 0)  -->
<!DOCTYPE svg PUBLIC "-//W3C//DTD SVG 1.1//EN" "http://www.w3.org/Graphics/SVG/1.1/DTD/svg11.dtd">
<svg version="1.1" xmlns="http://www.w3.org/2000/svg" xmlns:xlink="http://www.w3.org/1999/xlink" x="0px" y="0px" width="24px"
	 height="24px" viewBox="0 0 24 24" enable-background="new 0 0 24 24" xml:space="preserve">
<g id="Header">
	<g>
		<rect x="-618" y="-1080" fill="none" width="1400" height="3600"/>
	</g>
</g>
<g id="Labels">
	<g>
		<g>
			<rect fill="none" width="24" height="24"/>
		</g>
		<path d="M20.9,11c-0.5-4.2-3.8-7.5-7.9-7.9V1h-2v2.1C9.9,3.2,8.8,3.5,7.8,4l1.5,1.5C10.2,5.2,11.1,5,12,5c3.9,0,7,3.1,7,7
			c0,0.9-0.2,1.8-0.5,2.7l1.5,1.5c0.5-1,0.8-2,1-3.2H23v-2H20.9z M3,4.3l2,2C4,7.6,3.3,9.2,3.1,11H1v2h2.1c0.5,4.2,3.8,7.5,7.9,7.9
			V23h2v-2.1c1.8-0.2,3.4-0.9,4.7-2l2,2l1.3-1.3L4.3,3L3,4.3z M16.3,17.5C15.1,18.5,13.6,19,12,19c-3.9,0-7-3.1-7-7
			c0-1.6,0.5-3.1,1.5-4.3L16.3,17.5z"/>
	</g>
</g>
<g id="Icon">
</g>
<g id="Grid" display="none">
	<g display="inline">
	</g>
</g>
</svg>
