<?xml version="1.0" encoding="utf-8"?>
<!-- Generator: Adobe Illustrator 17.1.0, SVG Export Plug-In . SVG Version: 6.00 Build 0)  -->
<!DOCTYPE svg PUBLIC "-//W3C//DTD SVG 1.1//EN" "http://www.w3.org/Graphics/SVG/1.1/DTD/svg11.dtd">
<svg version="1.1" xmlns="http://www.w3.org/2000/svg" xmlns:xlink="http://www.w3.org/1999/xlink" x="0px" y="0px" width="48px"
	 height="48px" viewBox="0 0 48 48" enable-background="new 0 0 48 48" xml:space="preserve">
<g id="Header">
	<g>
		<rect x="-838" y="-1848" fill="none" width="1400" height="3600"/>
	</g>
</g>
<g id="Labels">
</g>
<g id="Icon">
	<g>
		<path d="M8,8h14V4H8C5.8,4,4,5.8,4,8v14h4V8z M20,26l-8,10h24l-6-8l-4.1,5.4L20,26z M34,17c0-1.7-1.3-3-3-3s-3,1.3-3,3s1.3,3,3,3
			S34,18.7,34,17z M40,4H26v4h14v14h4V8C44,5.8,42.2,4,40,4z M40,40H26v4h14c2.2,0,4-1.8,4-4V26h-4V40z M8,26H4v14c0,2.2,1.8,4,4,4
			h14v-4H8V26z"/>
		<rect fill="none" width="48" height="48"/>
	</g>
</g>
<g id="Grid" display="none">
	<g display="inline">
		<line fill="none" stroke="#00E5FF" stroke-width="0.1" stroke-miterlimit="10" x1="42" y1="-1848" x2="42" y2="1704"/>
	</g>
</g>
</svg>
