<?xml version="1.0" encoding="utf-8"?>
<!-- Generator: Adobe Illustrator 17.1.0, SVG Export Plug-In . SVG Version: 6.00 Build 0)  -->
<!DOCTYPE svg PUBLIC "-//W3C//DTD SVG 1.1//EN" "http://www.w3.org/Graphics/SVG/1.1/DTD/svg11.dtd">
<svg version="1.1" xmlns="http://www.w3.org/2000/svg" xmlns:xlink="http://www.w3.org/1999/xlink" x="0px" y="0px" width="24px"
	 height="24px" viewBox="0 0 24 24" enable-background="new 0 0 24 24" xml:space="preserve">
<g id="Header">
	<g>
		<rect x="-618" y="-2104" fill="none" width="1400" height="3600"/>
	</g>
</g>
<g id="Labels">
</g>
<g id="Icon">
	<g>
		<rect fill="none" width="24" height="24"/>
		<path d="M21,5H3C1.9,5,1,5.9,1,7v10c0,1.1,0.9,2,2,2h18c1.1,0,2-0.9,2-2V7C23,5.9,22.1,5,21,5z M19,17H5V7h14V17z M10,16h4
			c0.6,0,1-0.4,1-1v-3c0-0.6-0.4-1-1-1v-1c0-1.1-0.9-2-2-2c-1.1,0-2,0.9-2,2v1c-0.6,0-1,0.4-1,1v3C9,15.6,9.4,16,10,16z M10.8,10
			c0-0.7,0.5-1.2,1.2-1.2c0.7,0,1.2,0.5,1.2,1.2v1h-2.4V10z"/>
	</g>
</g>
<g id="Grid" display="none">
	<g display="inline">
	</g>
</g>
</svg>
