<?xml version="1.0" encoding="utf-8"?>
<!-- Generator: Adobe Illustrator 17.1.0, SVG Export Plug-In . SVG Version: 6.00 Build 0)  -->
<!DOCTYPE svg PUBLIC "-//W3C//DTD SVG 1.1//EN" "http://www.w3.org/Graphics/SVG/1.1/DTD/svg11.dtd">
<svg version="1.1" xmlns="http://www.w3.org/2000/svg" xmlns:xlink="http://www.w3.org/1999/xlink" x="0px" y="0px" width="24px"
	 height="24px" viewBox="0 0 24 24" enable-background="new 0 0 24 24" xml:space="preserve">
<g id="Header">
	<g>
		<rect x="-618" y="-1976" fill="none" width="1400" height="3600"/>
	</g>
</g>
<g id="Labels">
</g>
<g id="Icon">
	<g>
		<rect fill="none" width="24" height="24"/>
		<path d="M16.5,2.5c3.3,1.5,5.6,4.7,6,8.5h1.5C23.4,4.8,18.3,0,12,0c-0.2,0-0.4,0-0.7,0l3.8,3.8L16.5,2.5z M10.2,1.7
			c-0.6-0.6-1.5-0.6-2.1,0L1.7,8.1c-0.6,0.6-0.6,1.5,0,2.1l12,12c0.6,0.6,1.5,0.6,2.1,0l6.4-6.4c0.6-0.6,0.6-1.5,0-2.1L10.2,1.7z
			 M14.8,21.2l-12-12l6.4-6.4l12,12L14.8,21.2z M7.5,21.5c-3.3-1.5-5.6-4.7-6-8.5H0.1C0.6,19.2,5.7,24,12,24c0.2,0,0.4,0,0.7,0
			l-3.8-3.8L7.5,21.5z"/>
	</g>
</g>
<g id="Grid" display="none">
	<g display="inline">
	</g>
</g>
</svg>
