<?xml version="1.0" encoding="utf-8"?>
<!-- Generator: Adobe Illustrator 17.1.0, SVG Export Plug-In . SVG Version: 6.00 Build 0)  -->
<!DOCTYPE svg PUBLIC "-//W3C//DTD SVG 1.1//EN" "http://www.w3.org/Graphics/SVG/1.1/DTD/svg11.dtd">
<svg version="1.1" id="Layer_1" xmlns="http://www.w3.org/2000/svg" xmlns:xlink="http://www.w3.org/1999/xlink" x="0px" y="0px"
	 width="108px" height="108px" viewBox="0 0 108 108" enable-background="new 0 0 108 108" xml:space="preserve">
<g>
	<rect fill="none" width="108" height="108"/>
	<path d="M54,36c3.3,0,6-2.7,6-6s-2.7-6-6-6s-6,2.7-6,6S50.7,36,54,36z M54,48c-3.3,0-6,2.7-6,6s2.7,6,6,6s6-2.7,6-6S57.3,48,54,48z
		 M54,72c-3.3,0-6,2.7-6,6s2.7,6,6,6s6-2.7,6-6S57.3,72,54,72z"/>
</g>
<g>
	<rect x="-636" y="-1004" fill="none" width="1400" height="1800"/>
</g>
</svg>
