<?xml version="1.0" encoding="utf-8"?>
<!-- Generator: Adobe Illustrator 17.1.0, SVG Export Plug-In . SVG Version: 6.00 Build 0)  -->
<!DOCTYPE svg PUBLIC "-//W3C//DTD SVG 1.1//EN" "http://www.w3.org/Graphics/SVG/1.1/DTD/svg11.dtd">
<svg version="1.1" id="Layer_1" xmlns="http://www.w3.org/2000/svg" xmlns:xlink="http://www.w3.org/1999/xlink" x="0px" y="0px"
	 width="108px" height="108px" viewBox="0 0 108 108" enable-background="new 0 0 108 108" xml:space="preserve">
<g>
	<rect fill="none" width="108" height="108"/>
	<g>
		<path fill="#231F20" d="M90,33c0-3.3-2.7-6-6-6H24c-3.3,0-6,2.7-6,6L90,33L90,33z"/>
		<path fill="#231F20" d="M90,39H18c-3.3,0-6,2.7-6,6v30c0,3.3,2.7,6,6,6h72c3.3,0,6-2.7,6-6V45C96,41.7,93.3,39,90,39z M90,75H18
			V45h72V75z"/>
	</g>
</g>
<g>
	<rect x="-636" y="-1192" fill="none" width="1400" height="1800"/>
</g>
</svg>
