<?xml version="1.0" encoding="utf-8"?>
<!-- Generator: Adobe Illustrator 17.1.0, SVG Export Plug-In . SVG Version: 6.00 Build 0)  -->
<!DOCTYPE svg PUBLIC "-//W3C//DTD SVG 1.1//EN" "http://www.w3.org/Graphics/SVG/1.1/DTD/svg11.dtd">
<svg version="1.1" xmlns="http://www.w3.org/2000/svg" xmlns:xlink="http://www.w3.org/1999/xlink" x="0px" y="0px" width="24px"
	 height="24px" viewBox="0 0 24 24" enable-background="new 0 0 24 24" xml:space="preserve">
<g id="Header">
	<g>
		<rect x="-618" y="-568" fill="none" width="1400" height="3600"/>
	</g>
</g>
<g id="Labels">
</g>
<g id="Icon">
	<g>
		<rect fill="none" width="24" height="24"/>
		<path d="M15,7v4h1v2h-3V5h2l-3-4L9,5h2v8H8v-2.1C8.7,10.6,9.2,9.8,9.2,9c0-1.2-1-2.2-2.2-2.2c-1.2,0-2.2,1-2.2,2.2
			c0,0.8,0.5,1.6,1.2,1.9V13c0,1.1,0.9,2,2,2h3v3.1c-0.7,0.4-1.2,1.1-1.2,1.9c0,1.2,1,2.2,2.2,2.2c1.2,0,2.2-1,2.2-2.2
			c0-0.9-0.5-1.6-1.2-1.9V15h3c1.1,0,2-0.9,2-2v-2h1V7H15z"/>
	</g>
</g>
<g id="Grid" display="none">
	<g display="inline">
	</g>
</g>
</svg>
