<?xml version="1.0" encoding="utf-8"?>
<!-- Generator: Adobe Illustrator 17.1.0, SVG Export Plug-In . SVG Version: 6.00 Build 0)  -->
<!DOCTYPE svg PUBLIC "-//W3C//DTD SVG 1.1//EN" "http://www.w3.org/Graphics/SVG/1.1/DTD/svg11.dtd">
<svg version="1.1" xmlns="http://www.w3.org/2000/svg" xmlns:xlink="http://www.w3.org/1999/xlink" x="0px" y="0px" width="24px"
	 height="24px" viewBox="0 0 24 24" enable-background="new 0 0 24 24" xml:space="preserve">
<g id="Header">
	<g>
		<rect x="-618" y="-1720" fill="none" width="1400" height="3600"/>
	</g>
</g>
<g id="Label">
</g>
<g id="Icon">
	<g>
		<path d="M20.3,4.7L18.7,3L17,4.7L15.3,3l-1.7,1.7L12,3l-1.7,1.7L8.7,3L7,4.7L5.3,3L3.7,4.7L2,3v16c0,1.1,0.9,2,2,2h16
			c1.1,0,2-0.9,2-2l0-16L20.3,4.7z M12,19H4v-7h8V19z M20,19h-7v-1h7V19z M20,17h-7v-1h7V17z M20,15h-7v-1h7V15z M20,13h-7v-1h7V13z
			 M20,11H4V8h16V11z"/>
		<rect fill="none" width="24" height="24"/>
	</g>
</g>
<g id="Grid" display="none">
	<g display="inline">
	</g>
</g>
</svg>
