<?xml version="1.0" encoding="utf-8"?>
<!-- Generator: Adobe Illustrator 17.1.0, SVG Export Plug-In . SVG Version: 6.00 Build 0)  -->
<!DOCTYPE svg PUBLIC "-//W3C//DTD SVG 1.1//EN" "http://www.w3.org/Graphics/SVG/1.1/DTD/svg11.dtd">
<svg version="1.1" xmlns="http://www.w3.org/2000/svg" xmlns:xlink="http://www.w3.org/1999/xlink" x="0px" y="0px" width="24px"
	 height="24px" viewBox="0 0 24 24" enable-background="new 0 0 24 24" xml:space="preserve">
<g id="Header">
	<g>
		<rect x="-618" y="-1080" fill="none" width="1400" height="3600"/>
	</g>
</g>
<g id="Label">
</g>
<g id="Icon">
	<g>
		<path d="M16.5,12c0-1.8-1-3.3-2.5-4v2.2l2.5,2.5C16.5,12.4,16.5,12.2,16.5,12z M19,12c0,0.9-0.2,1.8-0.5,2.6l1.5,1.5
			c0.7-1.2,1-2.7,1-4.2c0-4.3-3-7.9-7-8.8v2.1C16.9,6.2,19,8.8,19,12z M4.3,3L3,4.3L7.7,9H3c0,0,0,6,0,6h4l5,5v-6.7l4.3,4.3
			c-0.7,0.5-1.4,0.9-2.3,1.2v2.1c1.4-0.3,2.6-0.9,3.7-1.8l2,2l1.3-1.3l-9-9L4.3,3z M12,4L9.9,6.1L12,8.2V4z"/>
		<rect fill="none" width="24" height="24"/>
	</g>
</g>
<g id="Grid" display="none">
	<g display="inline">
	</g>
</g>
</svg>
