<?xml version="1.0" encoding="utf-8"?>
<!-- Generator: Adobe Illustrator 17.1.0, SVG Export Plug-In . SVG Version: 6.00 Build 0)  -->
<!DOCTYPE svg PUBLIC "-//W3C//DTD SVG 1.1//EN" "http://www.w3.org/Graphics/SVG/1.1/DTD/svg11.dtd">
<svg version="1.1" xmlns="http://www.w3.org/2000/svg" xmlns:xlink="http://www.w3.org/1999/xlink" x="0px" y="0px" width="48px"
	 height="48px" viewBox="0 0 48 48" enable-background="new 0 0 48 48" xml:space="preserve">
<g id="Header">
	<g>
		<rect x="-838" y="-1080" fill="none" width="1400" height="3600"/>
	</g>
</g>
<g id="Label">
</g>
<g id="Icon">
	<g>
		<path d="M33,24c0-3.5-2-6.6-5-8.1v4.4l4.9,4.9C33,24.9,33,24.4,33,24z M38,24c0,1.9-0.4,3.6-1.1,5.3l3,3C41.3,29.8,42,27,42,24
			c0-8.6-6-15.7-14-17.5v4.1C33.8,12.3,38,17.7,38,24z M8.5,6L6,8.5l9.5,9.5H6c0,0,0,12,0,12h8l10,10V26.5l8.5,8.5
			c-1.3,1-2.8,1.9-4.5,2.4v4.1c2.8-0.6,5.3-1.9,7.4-3.6l4.1,4.1l2.5-2.5l-18-18L8.5,6z M24,8l-4.2,4.2l4.2,4.2V8z"/>
		<rect fill="none" width="48" height="48"/>
	</g>
</g>
<g id="Grid" display="none">
	<g display="inline">
		<line fill="none" stroke="#00E5FF" stroke-width="0.1" stroke-miterlimit="10" x1="42" y1="-1080" x2="42" y2="2472"/>
	</g>
</g>
</svg>
