<?xml version="1.0" encoding="utf-8"?>
<!-- Generator: Adobe Illustrator 17.1.0, SVG Export Plug-In . SVG Version: 6.00 Build 0)  -->
<!DOCTYPE svg PUBLIC "-//W3C//DTD SVG 1.1//EN" "http://www.w3.org/Graphics/SVG/1.1/DTD/svg11.dtd">
<svg version="1.1" xmlns="http://www.w3.org/2000/svg" xmlns:xlink="http://www.w3.org/1999/xlink" x="0px" y="0px" width="24px"
	 height="24px" viewBox="0 0 24 24" enable-background="new 0 0 24 24" xml:space="preserve">
<g id="Header">
	<g>
		<rect x="-618" y="-440" fill="none" width="1400" height="3600"/>
	</g>
</g>
<g id="Label">
</g>
<g id="Icon">
	<g>
		<g>
			<g opacity="0.1">
				<rect fill="none" width="24" height="24"/>
			</g>
			<g>
				<rect fill="none" width="24" height="24"/>
			</g>
		</g>
		<path d="M21,3H3C1.9,3,1,3.9,1,5v3h2V5h18v14h-7v2h7c1.1,0,2-0.9,2-2V5C23,3.9,22.1,3,21,3z M1,18v3h3C4,19.3,2.7,18,1,18z M1,14
			v2c2.8,0,5,2.2,5,5h2C8,17.1,4.9,14,1,14z M1,10v2c5,0,9,4,9,9h2C12,14.9,7.1,10,1,10z"/>
	</g>
</g>
<g id="Grid" display="none">
	<g display="inline">
	</g>
</g>
</svg>
