<?xml version="1.0" encoding="utf-8"?>
<!-- Generator: Adobe Illustrator 17.1.0, SVG Export Plug-In . SVG Version: 6.00 Build 0)  -->
<!DOCTYPE svg PUBLIC "-//W3C//DTD SVG 1.1//EN" "http://www.w3.org/Graphics/SVG/1.1/DTD/svg11.dtd">
<svg version="1.1" xmlns="http://www.w3.org/2000/svg" xmlns:xlink="http://www.w3.org/1999/xlink" x="0px" y="0px" width="24px"
	 height="24px" viewBox="0 0 24 24" enable-background="new 0 0 24 24" xml:space="preserve">
<g id="Header">
	<g>
		<rect x="-618" y="-696" fill="none" width="1400" height="3600"/>
	</g>
</g>
<g id="Label">
</g>
<g id="Icon">
	<g>
		<g opacity="0.1">
			<rect fill="none" width="24" height="24"/>
		</g>
		<path d="M12,2C6.5,2,2,6.5,2,12s4.5,10,10,10c5.5,0,10-4.5,10-10S17.5,2,12,2z M12,4c3,0,5.5,1.6,6.9,4H12c-1.9,0-3.6,1.4-3.9,3.2
			L5.7,7.1C7.2,5.2,9.4,4,12,4z M15,12c0,1.7-1.3,3-3,3c-1.7,0-3-1.3-3-3c0-1.7,1.3-3,3-3C13.7,9,15,10.3,15,12z M4,12
			c0-1.5,0.4-2.8,1.1-4l3.5,6l0,0c0.7,1.2,2,2,3.4,2c0.5,0,0.9-0.1,1.3-0.2l-2.4,4.1C7,19.4,4,16,4,12z M12,20l3.5-6l0,0
			c0.3-0.6,0.6-1.3,0.6-2c0-1.2-0.5-2.3-1.4-3h4.8c0.4,0.9,0.6,1.9,0.6,3C20,16.4,16.4,20,12,20z"/>
	</g>
</g>
<g id="Grid" display="none">
	<g display="inline">
	</g>
</g>
</svg>
