<?xml version="1.0" encoding="utf-8"?>
<!-- Generator: Adobe Illustrator 17.1.0, SVG Export Plug-In . SVG Version: 6.00 Build 0)  -->
<!DOCTYPE svg PUBLIC "-//W3C//DTD SVG 1.1//EN" "http://www.w3.org/Graphics/SVG/1.1/DTD/svg11.dtd">
<svg version="1.1" xmlns="http://www.w3.org/2000/svg" xmlns:xlink="http://www.w3.org/1999/xlink" x="0px" y="0px" width="24px"
	 height="24px" viewBox="0 0 24 24" enable-background="new 0 0 24 24" xml:space="preserve">
<g id="Header">
	<g>
		<rect x="-618" y="-1080" fill="none" width="1400" height="3600"/>
	</g>
</g>
<g id="Label">
</g>
<g id="Icon">
	<g>
		<g opacity="0.1">
			<rect fill="none" width="24" height="24"/>
		</g>
		<path d="M13,11v2.5h5.9c-0.6,3.5-3.4,6-6.9,6c-4.1,0-7.5-3.4-7.5-7.5S7.9,4.5,12,4.5c2.1,0,3.9,0.9,5.2,2.3l1.8-1.8
			C17.2,3.2,14.8,2,12,2C6.5,2,2,6.5,2,12s4.5,10,10,10c5.5,0,9.5-4.5,9.5-10v-1H13z"/>
	</g>
</g>
<g id="Grid" display="none">
	<g display="inline">
	</g>
</g>
</svg>
