<?xml version="1.0" encoding="utf-8"?>
<!-- Generator: Adobe Illustrator 17.1.0, SVG Export Plug-In . SVG Version: 6.00 Build 0)  -->
<!DOCTYPE svg PUBLIC "-//W3C//DTD SVG 1.1//EN" "http://www.w3.org/Graphics/SVG/1.1/DTD/svg11.dtd">
<svg version="1.1" xmlns="http://www.w3.org/2000/svg" xmlns:xlink="http://www.w3.org/1999/xlink" x="0px" y="0px" width="24px"
	 height="24px" viewBox="0 0 24 24" enable-background="new 0 0 24 24" xml:space="preserve">
<g id="Header">
	<g>
		<rect x="-618" y="-2872" fill="none" width="1400" height="3600"/>
	</g>
</g>
<g id="Label">
</g>
<g id="Icon">
	<g>
		<rect y="-1" fill="none" width="24" height="24"/>
		<path d="M15.5,10c0.8,0,1.5-0.7,1.5-1.5S16.3,7,15.5,7S14,7.7,14,8.5S14.7,10,15.5,10z M8.5,10C9.3,10,10,9.3,10,8.5S9.3,7,8.5,7
			C7.7,7,7,7.7,7,8.5S7.7,10,8.5,10z M12,17c2.6,0,4.8-1.7,5.7-4H6.3C7.2,15.3,9.4,17,12,17z M12,1C6.5,1,2,5.5,2,11
			c0,5.5,4.5,10,10,10c5.5,0,10-4.5,10-10C22,5.5,17.5,1,12,1z M12,19c-4.4,0-8-3.6-8-8s3.6-8,8-8c4.4,0,8,3.6,8,8S16.4,19,12,19z"
			/>
	</g>
</g>
<g id="Grid" display="none">
	<g display="inline">
	</g>
</g>
</svg>
