<?xml version="1.0" encoding="utf-8"?>
<!-- Generator: Adobe Illustrator 17.1.0, SVG Export Plug-In . SVG Version: 6.00 Build 0)  -->
<!DOCTYPE svg PUBLIC "-//W3C//DTD SVG 1.1//EN" "http://www.w3.org/Graphics/SVG/1.1/DTD/svg11.dtd">
<svg version="1.1" xmlns="http://www.w3.org/2000/svg" xmlns:xlink="http://www.w3.org/1999/xlink" x="0px" y="0px" width="24px"
	 height="24px" viewBox="0 0 24 24" enable-background="new 0 0 24 24" xml:space="preserve">
<g id="Header">
	<g>
		<rect x="-618" y="-1592" fill="none" width="1400" height="3600"/>
	</g>
</g>
<g id="Label">
</g>
<g id="Icon">
	<g>
		<rect fill="none" width="24" height="24"/>
		<path d="M20,3H4C2.9,3,2,3.9,2,5l0,10c0,1.1,0.9,2,2,2h16c1.1,0,2-0.9,2-2V5C22,3.9,21.1,3,20,3z M11,6h2v2h-2V6z M11,9h2v2h-2V9z
			 M8,6h2v2H8V6z M8,9h2v2H8V9z M7,11H5V9h2V11z M7,8H5V6h2V8z M16,15H8v-2h8V15z M16,11h-2V9h2V11z M16,8h-2V6h2V8z M19,11h-2V9h2
			V11z M19,8h-2V6h2V8z M12,23l4-4H8L12,23z"/>
	</g>
</g>
<g id="Grid" display="none">
	<g display="inline">
	</g>
</g>
</svg>
