<?xml version="1.0" encoding="utf-8"?>
<!-- Generator: Adobe Illustrator 17.1.0, SVG Export Plug-In . SVG Version: 6.00 Build 0)  -->
<!DOCTYPE svg PUBLIC "-//W3C//DTD SVG 1.1//EN" "http://www.w3.org/Graphics/SVG/1.1/DTD/svg11.dtd">
<svg version="1.1" xmlns="http://www.w3.org/2000/svg" xmlns:xlink="http://www.w3.org/1999/xlink" x="0px" y="0px" width="48px"
	 height="48px" viewBox="0 0 48 48" enable-background="new 0 0 48 48" xml:space="preserve">
<g id="Header">
	<g>
		<rect x="-838" y="-2104" fill="none" width="1400" height="3600"/>
	</g>
</g>
<g id="Label">
</g>
<g id="Icon">
	<g>
		<rect fill="none" width="48" height="48"/>
		<path d="M24,4C13,4,4,13,4,24c0,11,9,20,20,20c11,0,20-9,20-20C44,13,35,4,24,4z M24,10c3.1,0,6,1,8.4,2.8L28,17.1
			c-1.2-0.7-2.6-1.1-4-1.1c-4.4,0-8,3.6-8,8c0,2.2,0.9,4.2,2.3,5.7l-4.2,4.2c-2.5-2.5-4.1-6-4.1-9.9C10,16.3,16.3,10,24,10z
			 M33.9,33.9l-4.2-4.2c1.4-1.4,2.3-3.4,2.3-5.7c0-1.5-0.4-2.9-1.1-4l4.3-4.3C37,18,38,20.9,38,24C38,27.9,36.4,31.4,33.9,33.9z"/>
	</g>
</g>
<g id="Grid" display="none">
	<g display="inline">
		<line fill="none" stroke="#00E5FF" stroke-width="0.1" stroke-miterlimit="10" x1="42" y1="-2104" x2="42" y2="1448"/>
	</g>
</g>
</svg>
