<?xml version="1.0" encoding="utf-8"?>
<!-- Generator: Adobe Illustrator 17.1.0, SVG Export Plug-In . SVG Version: 6.00 Build 0)  -->
<!DOCTYPE svg PUBLIC "-//W3C//DTD SVG 1.1//EN" "http://www.w3.org/Graphics/SVG/1.1/DTD/svg11.dtd">
<svg version="1.1" xmlns="http://www.w3.org/2000/svg" xmlns:xlink="http://www.w3.org/1999/xlink" x="0px" y="0px" width="24px"
	 height="24px" viewBox="0 0 24 24" enable-background="new 0 0 24 24" xml:space="preserve">
<g id="Header">
	<g>
		<rect x="-618" y="-2360" fill="none" width="1400" height="3600"/>
	</g>
</g>
<g id="Label">
</g>
<g id="Icon">
	<path d="M18.5,0h-14C3.1,0,2,1.1,2,2.5v19C2,22.9,3.1,24,4.5,24h14c1.4,0,2.5-1.1,2.5-2.5v-19C21,1.1,19.9,0,18.5,0z M11.5,23
		c-0.8,0-1.5-0.7-1.5-1.5s0.7-1.5,1.5-1.5c0.8,0,1.5,0.7,1.5,1.5S12.3,23,11.5,23z M19,19H4V3h15V19z"/>
</g>
<g id="Grid" display="none">
	<g display="inline">
	</g>
</g>
</svg>
