<?xml version="1.0" encoding="utf-8"?>
<!-- Generator: Adobe Illustrator 17.1.0, SVG Export Plug-In . SVG Version: 6.00 Build 0)  -->
<!DOCTYPE svg PUBLIC "-//W3C//DTD SVG 1.1//EN" "http://www.w3.org/Graphics/SVG/1.1/DTD/svg11.dtd">
<svg version="1.1" xmlns="http://www.w3.org/2000/svg" xmlns:xlink="http://www.w3.org/1999/xlink" x="0px" y="0px" width="24px"
	 height="24px" viewBox="0 0 24 24" enable-background="new 0 0 24 24" xml:space="preserve">
<g id="Header">
	<g>
		<rect x="-618" y="-2744" fill="none" width="1400" height="3600"/>
	</g>
</g>
<g id="Label">
</g>
<g id="Icon">
	<g>
		<g opacity="0.1">
			<rect fill="none" width="24" height="24"/>
		</g>
		<g>
			<path d="M20,12c0-2.5-1.2-4.8-3-6.3L16,0H8L7,5.7C5.2,7.2,4,9.5,4,12s1.2,4.8,3,6.3L8,24h8l1-5.7C18.8,16.8,20,14.5,20,12z M6,12
				c0-3.3,2.7-6,6-6c3.3,0,6,2.7,6,6s-2.7,6-6,6C8.7,18,6,15.3,6,12z"/>
		</g>
	</g>
</g>
<g id="Grid" display="none">
	<g display="inline">
	</g>
</g>
</svg>
