<?xml version="1.0" encoding="utf-8"?>
<!-- Generator: Adobe Illustrator 17.1.0, SVG Export Plug-In . SVG Version: 6.00 Build 0)  -->
<!DOCTYPE svg PUBLIC "-//W3C//DTD SVG 1.1//EN" "http://www.w3.org/Graphics/SVG/1.1/DTD/svg11.dtd">
<svg version="1.1" xmlns="http://www.w3.org/2000/svg" xmlns:xlink="http://www.w3.org/1999/xlink" x="0px" y="0px" width="24px"
	 height="24px" viewBox="0 0 24 24" enable-background="new 0 0 24 24" xml:space="preserve">
<g id="Header">
	<g>
		<rect x="-618" y="-440" fill="none" width="1400" height="3600"/>
	</g>
</g>
<g id="Label">
</g>
<g id="Icon">
	<g>
		<rect fill="none" width="24" height="24"/>
		<path d="M5,16c0,3.9,3.1,7,7,7c3.9,0,7-3.1,7-7v-4H5V16z M16.1,4.4l2.1-2.1l-0.8-0.8l-2.3,2.3C14.2,3.3,13.1,3,12,3
			c-1.1,0-2.2,0.3-3.1,0.7L6.6,1.4L5.8,2.3l2.1,2.1C6.1,5.6,5,7.7,5,10v1h14v-1C19,7.7,17.9,5.6,16.1,4.4z M9,9C8.4,9,8,8.6,8,8
			s0.4-1,1-1c0.6,0,1,0.4,1,1S9.6,9,9,9z M15,9c-0.6,0-1-0.4-1-1s0.4-1,1-1c0.6,0,1,0.4,1,1S15.6,9,15,9z"/>
	</g>
</g>
<g id="Grid" display="none">
	<g display="inline">
	</g>
</g>
</svg>
