<?xml version="1.0" encoding="utf-8"?>
<!-- Generator: Adobe Illustrator 17.1.0, SVG Export Plug-In . SVG Version: 6.00 Build 0)  -->
<!DOCTYPE svg PUBLIC "-//W3C//DTD SVG 1.1//EN" "http://www.w3.org/Graphics/SVG/1.1/DTD/svg11.dtd">
<svg version="1.1" xmlns="http://www.w3.org/2000/svg" xmlns:xlink="http://www.w3.org/1999/xlink" x="0px" y="0px" width="24px"
	 height="24px" viewBox="0 0 24 24" enable-background="new 0 0 24 24" xml:space="preserve">
<g id="Header">
	<g>
		<rect x="-618" y="-1976" fill="none" width="1400" height="3600"/>
	</g>
</g>
<g id="Label">
</g>
<g id="Icon">
	<g>
		<rect fill="none" width="24" height="24"/>
		<path d="M22,3H7C6.3,3,5.8,3.4,5.4,3.9L0,12l5.4,8.1c0.4,0.5,1,0.9,1.7,0.9H22c1.1,0,2-0.9,2-2V5C24,3.9,23.1,3,22,3z M9,13.5
			c-0.8,0-1.5-0.7-1.5-1.5s0.7-1.5,1.5-1.5c0.8,0,1.5,0.7,1.5,1.5S9.8,13.5,9,13.5z M14,13.5c-0.8,0-1.5-0.7-1.5-1.5
			s0.7-1.5,1.5-1.5c0.8,0,1.5,0.7,1.5,1.5S14.8,13.5,14,13.5z M19,13.5c-0.8,0-1.5-0.7-1.5-1.5s0.7-1.5,1.5-1.5
			c0.8,0,1.5,0.7,1.5,1.5S19.8,13.5,19,13.5z"/>
	</g>
</g>
<g id="Grid" display="none">
	<g display="inline">
	</g>
</g>
</svg>
