<?xml version="1.0" encoding="utf-8"?>
<!-- Generator: Adobe Illustrator 17.1.0, SVG Export Plug-In . SVG Version: 6.00 Build 0)  -->
<!DOCTYPE svg PUBLIC "-//W3C//DTD SVG 1.1//EN" "http://www.w3.org/Graphics/SVG/1.1/DTD/svg11.dtd">
<svg version="1.1" xmlns="http://www.w3.org/2000/svg" xmlns:xlink="http://www.w3.org/1999/xlink" x="0px" y="0px" width="24px"
	 height="24px" viewBox="0 0 24 24" enable-background="new 0 0 24 24" xml:space="preserve">
<g id="Header">
	<g>
		<rect x="-618" y="-2104" fill="none" width="1400" height="3600"/>
	</g>
</g>
<g id="Label">
</g>
<g id="Icon">
	<g>
		<rect fill="none" width="24" height="24"/>
		<path d="M14.7,9.5L17,7.2V11h0.5l2.9-2.9L18.2,6l2.1-2.1L17.5,1H17v3.8l-2.3-2.3L14,3.2L16.8,6L14,8.8L14.7,9.5z M18,2.9l0.9,0.9
			L18,4.8V2.9z M18,7.2l0.9,0.9L18,9.1V7.2z M20,15.5c-1.2,0-2.4-0.2-3.6-0.6c-0.3-0.1-0.7,0-1,0.2l-2.2,2.2
			c-2.8-1.4-5.1-3.8-6.6-6.6l2.2-2.2c0.3-0.3,0.4-0.7,0.2-1C8.7,6.4,8.5,5.2,8.5,4c0-0.6-0.4-1-1-1H4C3.4,3,3,3.4,3,4
			c0,9.4,7.6,17,17,17c0.6,0,1-0.4,1-1v-3.5C21,15.9,20.6,15.5,20,15.5z"/>
	</g>
</g>
<g id="Grid" display="none">
	<g display="inline">
	</g>
</g>
</svg>
