<?xml version="1.0" encoding="utf-8"?>
<!-- Generator: Adobe Illustrator 17.1.0, SVG Export Plug-In . SVG Version: 6.00 Build 0)  -->
<!DOCTYPE svg PUBLIC "-//W3C//DTD SVG 1.1//EN" "http://www.w3.org/Graphics/SVG/1.1/DTD/svg11.dtd">
<svg version="1.1" xmlns="http://www.w3.org/2000/svg" xmlns:xlink="http://www.w3.org/1999/xlink" x="0px" y="0px" width="24px"
	 height="24px" viewBox="0 0 24 24" enable-background="new 0 0 24 24" xml:space="preserve">
<g id="Header">
	<g>
		<rect x="-618" y="-2232" fill="none" width="1400" height="3600"/>
	</g>
</g>
<g id="Label">
	<g>
		<rect fill="none" width="24" height="24"/>
		<path fill="#DB4437" d="M3,12c0,2.2,0.9,4.2,2.4,5.6L3,20h6v-6l-2.2,2.2C5.7,15.2,5,13.7,5,12c0-2.6,1.7-4.8,4-5.7V4.3
			C5.6,5.2,3,8.3,3,12z M11,17h2v-2h-2V17z M21,4h-6v6l2.2-2.2C18.3,8.8,19,10.3,19,12c0,2.6-1.7,4.8-4,5.7v2.1c3.4-0.9,6-4,6-7.7
			c0-2.2-0.9-4.2-2.4-5.6L21,4z M11,13h2V7h-2V13z"/>
	</g>
</g>
<g id="Icon">
</g>
<g id="Grid" display="none">
	<g display="inline">
	</g>
</g>
</svg>
