<?xml version="1.0" encoding="utf-8"?>
<!-- Generator: Adobe Illustrator 17.1.0, SVG Export Plug-In . SVG Version: 6.00 Build 0)  -->
<!DOCTYPE svg PUBLIC "-//W3C//DTD SVG 1.1//EN" "http://www.w3.org/Graphics/SVG/1.1/DTD/svg11.dtd">
<svg version="1.1" xmlns="http://www.w3.org/2000/svg" xmlns:xlink="http://www.w3.org/1999/xlink" x="0px" y="0px" width="24px"
	 height="24px" viewBox="0 0 24 24" enable-background="new 0 0 24 24" xml:space="preserve">
<g id="Header">
	<g>
		<rect x="-618" y="-1976" fill="none" width="1400" height="3600"/>
	</g>
</g>
<g id="Label">
	<g>
		<g>
			<rect fill="none" width="24" height="24"/>
		</g>
		<path fill="#0F9D58" d="M4,12c0,2.2,0.9,4.2,2.4,5.6L4,20h6v-6l-2.2,2.2C6.7,15.2,6,13.7,6,12c0-2.6,1.7-4.8,4-5.7V4.3
			C6.6,5.2,4,8.3,4,12z M20,4h-6v6l2.2-2.2C17.3,8.8,18,10.3,18,12c0,2.6-1.7,4.8-4,5.7v2.1c3.4-0.9,6-4,6-7.7
			c0-2.2-0.9-4.2-2.4-5.6L20,4z"/>
	</g>
</g>
<g id="Icon">
</g>
<g id="Grid" display="none">
	<g display="inline">
	</g>
</g>
</svg>
