<?xml version="1.0" encoding="utf-8"?>
<!-- Generator: Adobe Illustrator 17.1.0, SVG Export Plug-In . SVG Version: 6.00 Build 0)  -->
<!DOCTYPE svg PUBLIC "-//W3C//DTD SVG 1.1//EN" "http://www.w3.org/Graphics/SVG/1.1/DTD/svg11.dtd">
<svg version="1.1" xmlns="http://www.w3.org/2000/svg" xmlns:xlink="http://www.w3.org/1999/xlink" x="0px" y="0px" width="24px"
	 height="24px" viewBox="0 0 24 24" enable-background="new 0 0 24 24" xml:space="preserve">
<g id="Header">
	<g>
		<rect x="-618" y="-1720" fill="none" width="1400" height="3600"/>
	</g>
</g>
<g id="Label">
</g>
<g id="Icon">
	<g>
		<g>
			<rect fill="none" width="24" height="24"/>
		</g>
	</g>
	<path d="M2,16v2c2.8,0,5,2.2,5,5h2C9,19.1,5.9,16,2,16z M2,20v3h3C5,21.3,3.7,20,2,20z M2,12v2c5,0,9,4,9,9h2C13,16.9,8.1,12,2,12z
		 M17,1L7,1C5.9,1,5,1.9,5,3v7.4c0.7,0.2,1.4,0.4,2,0.6V5h10v13h-3c0.5,1.2,0.8,2.6,0.9,4H17c1.1,0,2-0.9,2-2V3C19,1.9,18.1,1,17,1z
		"/>
</g>
<g id="Grid" display="none">
	<g display="inline">
	</g>
</g>
</svg>
