<?xml version="1.0" encoding="utf-8"?>
<!-- Generator: Adobe Illustrator 17.1.0, SVG Export Plug-In . SVG Version: 6.00 Build 0)  -->
<!DOCTYPE svg PUBLIC "-//W3C//DTD SVG 1.1//EN" "http://www.w3.org/Graphics/SVG/1.1/DTD/svg11.dtd">
<svg version="1.1" xmlns="http://www.w3.org/2000/svg" xmlns:xlink="http://www.w3.org/1999/xlink" x="0px" y="0px" width="24px"
	 height="24px" viewBox="0 0 24 24" enable-background="new 0 0 24 24" xml:space="preserve">
<g id="Header">
	<g>
		<rect x="-618" y="-1592" fill="none" width="1400" height="3600"/>
	</g>
</g>
<g id="Label">
</g>
<g id="Icon">
	<g>
		<path d="M22,4V3.5C22,2.1,20.9,1,19.5,1C18.1,1,17,2.1,17,3.5V4c-0.6,0-1,0.4-1,1v4c0,0.6,0.4,1,1,1h5c0.6,0,1-0.4,1-1V5
			C23,4.4,22.6,4,22,4z M21.2,4h-3.4V3.5c0-0.9,0.8-1.7,1.7-1.7c0.9,0,1.7,0.8,1.7,1.7V4z M18.9,12c0,0.3,0.1,0.7,0.1,1
			c0,2.1-0.8,4-2.1,5.4c-0.3-0.8-1-1.4-1.9-1.4h-1v-3c0-0.6-0.4-1-1-1H7v-2h2c0.6,0,1-0.4,1-1V8h2c1.1,0,2-0.9,2-2V3.5
			C13.1,3.2,12,3,11,3C5.5,3,1,7.5,1,13c0,5.5,4.5,10,10,10c5.5,0,10-4.5,10-10c0-0.3,0-0.7-0.1-1H18.9z M10,20.9
			c-3.9-0.5-7-3.9-7-7.9c0-0.6,0.1-1.2,0.2-1.8L8,16v1c0,1.1,0.9,2,2,2V20.9z"/>
		<g>
			<g>
				<rect fill="none" width="24" height="24"/>
			</g>
		</g>
	</g>
</g>
<g id="Grid" display="none">
	<g display="inline">
	</g>
</g>
</svg>
