<?xml version="1.0" encoding="utf-8"?>
<!-- Generator: Adobe Illustrator 17.1.0, SVG Export Plug-In . SVG Version: 6.00 Build 0)  -->
<!DOCTYPE svg PUBLIC "-//W3C//DTD SVG 1.1//EN" "http://www.w3.org/Graphics/SVG/1.1/DTD/svg11.dtd">
<svg version="1.1" xmlns="http://www.w3.org/2000/svg" xmlns:xlink="http://www.w3.org/1999/xlink" x="0px" y="0px" width="24px"
	 height="24px" viewBox="0 0 24 24" enable-background="new 0 0 24 24" xml:space="preserve">
<g id="Header">
	<g>
		<rect x="-618" y="-440" fill="none" width="1400" height="3600"/>
	</g>
</g>
<g id="Label">
</g>
<g id="Icon">
	<g>
		<path d="M7.5,18c-3,0-5.5-2.5-5.5-5.5S4.5,7,7.5,7H18c2.2,0,4,1.8,4,4s-1.8,4-4,4H9.5C8.1,15,7,13.9,7,12.5S8.1,10,9.5,10H17v1.5
			H9.5c-0.6,0-1,0.4-1,1s0.4,1,1,1H18c1.4,0,2.5-1.1,2.5-2.5S19.4,8.5,18,8.5H7.5c-2.2,0-4,1.8-4,4s1.8,4,4,4H17V18H7.5z"/>
		<rect fill="none" width="24" height="24"/>
	</g>
</g>
<g id="Grid" display="none">
	<g display="inline">
	</g>
</g>
</svg>
