<?xml version="1.0" encoding="utf-8"?>
<!-- Generator: Adobe Illustrator 17.1.0, SVG Export Plug-In . SVG Version: 6.00 Build 0)  -->
<!DOCTYPE svg PUBLIC "-//W3C//DTD SVG 1.1//EN" "http://www.w3.org/Graphics/SVG/1.1/DTD/svg11.dtd">
<svg version="1.1" xmlns="http://www.w3.org/2000/svg" xmlns:xlink="http://www.w3.org/1999/xlink" x="0px" y="0px" width="24px"
	 height="24px" viewBox="0 0 24 24" enable-background="new 0 0 24 24" xml:space="preserve">
<g id="Header">
	<g>
		<rect x="-618" y="-952" fill="none" width="1400" height="3600"/>
	</g>
</g>
<g id="Label">
</g>
<g id="Icon">
	<g>
		<rect fill="none" width="24" height="24"/>
		<path d="M19.4,10c-0.7-3.4-3.7-6-7.4-6c-1.5,0-2.9,0.4-4,1.2l1.5,1.5C10.2,6.2,11.1,6,12,6c3,0,5.5,2.5,5.5,5.5V12H19
			c1.7,0,3,1.3,3,3c0,1.1-0.6,2.1-1.6,2.6l1.5,1.5c1.3-0.9,2.1-2.4,2.1-4.1C24,12.4,21.9,10.2,19.4,10z M3,5.3L5.8,8
			C2.6,8.2,0,10.8,0,14c0,3.3,2.7,6,6,6h11.7l2,2l1.3-1.3L4.3,4L3,5.3z M7.7,10l8,8H6c-2.2,0-4-1.8-4-4c0-2.2,1.8-4,4-4H7.7z"/>
	</g>
</g>
<g id="Grid" display="none">
	<g display="inline">
	</g>
</g>
</svg>
