<?xml version="1.0" encoding="utf-8"?>
<!-- Generator: Adobe Illustrator 17.1.0, SVG Export Plug-In . SVG Version: 6.00 Build 0)  -->
<!DOCTYPE svg PUBLIC "-//W3C//DTD SVG 1.1//EN" "http://www.w3.org/Graphics/SVG/1.1/DTD/svg11.dtd">
<svg version="1.1" xmlns="http://www.w3.org/2000/svg" xmlns:xlink="http://www.w3.org/1999/xlink" x="0px" y="0px" width="48px"
	 height="48px" viewBox="0 0 48 48" enable-background="new 0 0 48 48" xml:space="preserve">
<g id="Header">
	<g>
		<rect x="-838" y="-2744" fill="none" width="1400" height="3600"/>
	</g>
</g>
<g id="Label">
</g>
<g id="Icon">
	<g>
		<rect fill="none" width="48" height="48"/>
		<path d="M22.7,17.2L22.7,17.2c0.1,0,0.1,0,0.1-0.1c0.1-0.6,0.2-1.2,0.3-1.6l0.1-0.3c0.2-1.1,0.2-1.7-0.1-2.1c0,0-0.1-0.1-0.1-0.1
			l-0.1-0.1c0,0-0.1,0-0.1,0c0,0-0.1,0-0.1,0c0,0.1-0.1,0.1-0.1,0.2c-0.3,0.8-0.3,2.3,0,4C22.6,17.2,22.6,17.2,22.7,17.2z M16.7,31
			c-0.4,0.2-0.8,0.5-1,0.6c-1.4,1.3-2.3,2.6-2.5,3.3c0,0,0,0.1,0,0.1c0,0,0,0,0.1,0c0,0,0,0,0,0c0.9-0.3,2.1-1.6,3.5-3.9
			c0,0,0-0.1,0-0.1C16.7,31,16.7,31,16.7,31z M35,28.1c-0.2-0.2-1-0.7-3.8-0.7c-0.1,0-0.3,0-0.4,0c0,0-0.1,0-0.1,0.1
			c0,0,0,0.1,0.1,0.1c1.5,0.6,2.9,1,3.8,1c0.1,0,0.3,0,0.4,0l0.1,0c0.1,0,0.2-0.1,0.2-0.1c0,0,0-0.1,0-0.1c0,0,0,0,0,0
			C35.1,28.2,35.1,28.2,35,28.1z M38,6H10c-2.2,0-4,1.8-4,4v28c0,2.2,1.8,4,4,4h28c2.2,0,4-1.8,4-4V10C42,7.8,40.2,6,38,6z
			 M35.8,29.5c-0.3,0.4-0.9,0.6-1.8,0.6c-1.5,0-4-0.5-6-1.5c-3.5,0.4-6.1,0.8-8.1,1.5c-0.1,0-0.2,0.1-0.4,0.1
			c-2.5,4.2-4.3,6.1-5.9,6.1c-0.3,0-0.6-0.1-0.9-0.2l-1-0.6l0-0.1c-0.2-0.3-0.2-0.7-0.1-1.1c0.2-1.1,1.3-2.7,3.8-4.2
			c0.4-0.3,1-0.6,1.8-1c0.6-1,1.2-2.3,1.9-3.6c1-2.1,1.7-4.1,2.2-5.8l0,0c-0.7-2.4-1.2-3.9-0.4-6.5c0.2-0.8,0.8-1.6,1.6-1.6l0.5,0
			c0.5,0,0.9,0.2,1.2,0.5c1.3,1.3,0.7,4.5,0,7.2c0,0.1-0.1,0.2-0.1,0.3c0.8,2.3,1.9,4.1,3.2,5.1c0.5,0.4,1.1,0.8,1.7,1.2
			c0.9-0.1,1.8-0.1,2.6-0.1c2.5,0,4,0.4,4.6,1.4c0.2,0.3,0.3,0.7,0.2,1.1C36.4,28.7,36.2,29.1,35.8,29.5z M22.9,21.9
			c-0.5,1.5-1.1,3.1-2,4.8c-0.4,0.8-0.8,1.5-1.1,2.1c0.1,0,0.1,0,0.2-0.1l0.2-0.1v0c2.5-1,4.9-1.5,6.7-1.9c-0.3-0.2-0.6-0.4-0.8-0.6
			C24.7,25.2,23.7,23.7,22.9,21.9z"/>
	</g>
</g>
<g id="Grid" display="none">
	<g display="inline">
		<line fill="none" stroke="#00E5FF" stroke-width="0.1" stroke-miterlimit="10" x1="42" y1="-2744" x2="42" y2="808"/>
	</g>
</g>
</svg>
