<?xml version="1.0" encoding="utf-8"?>
<!-- Generator: Adobe Illustrator 17.1.0, SVG Export Plug-In . SVG Version: 6.00 Build 0)  -->
<!DOCTYPE svg PUBLIC "-//W3C//DTD SVG 1.1//EN" "http://www.w3.org/Graphics/SVG/1.1/DTD/svg11.dtd">
<svg version="1.1" xmlns="http://www.w3.org/2000/svg" xmlns:xlink="http://www.w3.org/1999/xlink" x="0px" y="0px" width="24px"
	 height="24px" viewBox="0 0 24 24" enable-background="new 0 0 24 24" xml:space="preserve">
<g id="Header">
	<g>
		<rect x="-618" y="-1592" fill="none" width="1400" height="3600"/>
	</g>
</g>
<g id="Label">
	<g>
		<path d="M9,21c0,0.6,0.4,1,1,1h4c0.6,0,1-0.4,1-1v-1H9V21z M12,2C8.1,2,5,5.1,5,9c0,2.4,1.2,4.5,3,5.7V17c0,0.6,0.4,1,1,1h6
			c0.6,0,1-0.4,1-1v-2.3c1.8-1.3,3-3.4,3-5.7C19,5.1,15.9,2,12,2z"/>
		<g>
			<rect fill="none" width="24" height="24"/>
		</g>
	</g>
</g>
<g id="Icon">
</g>
<g id="Grid" display="none">
	<g display="inline">
	</g>
</g>
</svg>
