<?xml version="1.0" encoding="utf-8"?>
<!-- Generator: Adobe Illustrator 17.1.0, SVG Export Plug-In . SVG Version: 6.00 Build 0)  -->
<!DOCTYPE svg PUBLIC "-//W3C//DTD SVG 1.1//EN" "http://www.w3.org/Graphics/SVG/1.1/DTD/svg11.dtd">
<svg version="1.1" xmlns="http://www.w3.org/2000/svg" xmlns:xlink="http://www.w3.org/1999/xlink" x="0px" y="0px" width="24px"
	 height="24px" viewBox="0 0 24 24" enable-background="new 0 0 24 24" xml:space="preserve">
<g id="Header">
	<g>
		<rect x="-618" y="-2488" fill="none" width="1400" height="3600"/>
	</g>
</g>
<g id="Label">
</g>
<g id="Icon">
	<g>
		<rect fill="none" width="24" height="24"/>
		<g>
			<path d="M19,3H5C3.9,3,3,3.9,3,5v14c0,1.1,0.9,2,2,2h14c1.1,0,2-0.9,2-2V5C21,3.9,20.1,3,19,3z M9.8,13.4V17H8V7h4.3
				c1.5,0,2.2,0.3,2.8,0.9c0.7,0.6,0.9,1.4,0.9,2.3c0,1-0.3,1.8-0.9,2.3c-0.6,0.5-1.3,0.8-2.8,0.8H9.8z"/>
			<path d="M9.8,12V8.4h2.3c0.7,0,1.2,0.2,1.5,0.6c0.3,0.4,0.5,0.7,0.5,1.2c0,0.6-0.2,0.9-0.5,1.3c-0.3,0.3-0.7,0.5-1.4,0.5H9.8z"/>
		</g>
	</g>
</g>
<g id="Grid" display="none">
	<g display="inline">
	</g>
</g>
</svg>
