<?xml version="1.0" encoding="utf-8"?>
<!-- Generator: Adobe Illustrator 17.1.0, SVG Export Plug-In . SVG Version: 6.00 Build 0)  -->
<!DOCTYPE svg PUBLIC "-//W3C//DTD SVG 1.1//EN" "http://www.w3.org/Graphics/SVG/1.1/DTD/svg11.dtd">
<svg version="1.1" xmlns="http://www.w3.org/2000/svg" xmlns:xlink="http://www.w3.org/1999/xlink" x="0px" y="0px" width="24px"
	 height="24px" viewBox="0 0 24 24" enable-background="new 0 0 24 24" xml:space="preserve">
<g id="Header">
	<g>
		<rect x="-618" y="-440" fill="none" width="1400" height="3600"/>
	</g>
</g>
<g id="Label">
</g>
<g id="Icon">
	<g>
		<path d="M12,7c1.1,0,2-0.9,2-2c0-0.4-0.1-0.7-0.3-1L12,1l-1.7,3C10.1,4.3,10,4.6,10,5C10,6.1,10.9,7,12,7z M21,21v-4
			c0-1.1-0.9-2-2-2h-1v-3c0-1.1-0.9-2-2-2h-3V8h-2v2H8c-1.1,0-2,0.9-2,2v3H5c-1.1,0-2,0.9-2,2v4H1v2h22v-2H21z"/>
		<g>
			<rect fill="none" width="24" height="24"/>
		</g>
	</g>
</g>
<g id="Grid" display="none">
	<g display="inline">
	</g>
</g>
</svg>
