<?xml version="1.0" encoding="utf-8"?>
<!-- Generator: Adobe Illustrator 17.1.0, SVG Export Plug-In . SVG Version: 6.00 Build 0)  -->
<!DOCTYPE svg PUBLIC "-//W3C//DTD SVG 1.1//EN" "http://www.w3.org/Graphics/SVG/1.1/DTD/svg11.dtd">
<svg version="1.1" xmlns="http://www.w3.org/2000/svg" xmlns:xlink="http://www.w3.org/1999/xlink" x="0px" y="0px" width="24px"
	 height="24px" viewBox="0 0 24 24" enable-background="new 0 0 24 24" xml:space="preserve">
<g id="Header">
	<g>
		<rect x="-618" y="-824" fill="none" width="1400" height="3600"/>
	</g>
</g>
<g id="Label">
</g>
<g id="Icon">
	<g>
		<path d="M12,10c2.2,0,4-1.8,4-4c0-2.2-1.8-4-4-4C9.8,2,8,3.8,8,6C8,8.2,9.8,10,12,10z M12,4c1.1,0,2,0.9,2,2c0,1.1-0.9,2-2,2
			c-1.1,0-2-0.9-2-2C10,4.9,10.9,4,12,4z M6,13c-2.2,0-4,1.8-4,4c0,2.2,1.8,4,4,4c2.2,0,4-1.8,4-4C10,14.8,8.2,13,6,13z M6,19
			c-1.1,0-2-0.9-2-2c0-1.1,0.9-2,2-2c1.1,0,2,0.9,2,2C8,18.1,7.1,19,6,19z M12,11.1c-1,0-1.9,0.9-1.9,1.9s0.9,1.9,1.9,1.9
			c1,0,1.9-0.9,1.9-1.9S13,11.1,12,11.1z M18,13c-2.2,0-4,1.8-4,4c0,2.2,1.8,4,4,4c2.2,0,4-1.8,4-4C22,14.8,20.2,13,18,13z M18,19
			c-1.1,0-2-0.9-2-2c0-1.1,0.9-2,2-2c1.1,0,2,0.9,2,2C20,18.1,19.1,19,18,19z"/>
		<rect fill="none" width="24" height="24"/>
	</g>
</g>
<g id="Grid" display="none">
	<g display="inline">
	</g>
</g>
</svg>
