<?xml version="1.0" encoding="utf-8"?>
<!-- Generator: Adobe Illustrator 17.1.0, SVG Export Plug-In . SVG Version: 6.00 Build 0)  -->
<!DOCTYPE svg PUBLIC "-//W3C//DTD SVG 1.1//EN" "http://www.w3.org/Graphics/SVG/1.1/DTD/svg11.dtd">
<svg version="1.1" xmlns="http://www.w3.org/2000/svg" xmlns:xlink="http://www.w3.org/1999/xlink" x="0px" y="0px" width="24px"
	 height="24px" viewBox="0 0 24 24" enable-background="new 0 0 24 24" xml:space="preserve">
<g id="Header">
	<g>
		<rect x="-618" y="-568" fill="none" width="1400" height="3600"/>
	</g>
</g>
<g id="Label">
</g>
<g id="Icon">
	<g>
		<rect fill="none" width="24" height="24"/>
		<path d="M16.7,15c-0.8,2.3-3,4-5.7,4c-3.3,0-6-2.7-6-6c0-2.6,1.7-4.8,4-5.7C9,7.2,9,7.1,9,7c0-1,0.2-2,0.5-2.9C5.3,4.8,2,8.5,2,13
			c0,5,4,9,9,9c4.5,0,8.2-3.3,8.9-7.5C19,14.8,18,15,17,15C16.9,15,16.8,15,16.7,15z"/>
		<path d="M17,1c-3.3,0-6,2.7-6,6s2.7,6,6,6c3.3,0,6-2.7,6-6S20.3,1,17,1z M17,10c-1.7,0-3-1.3-3-3s1.3-3,3-3c1.7,0,3,1.3,3,3
			S18.7,10,17,10z"/>
	</g>
</g>
<g id="Grid" display="none">
	<g display="inline">
	</g>
</g>
</svg>
