<?xml version="1.0" encoding="utf-8"?>
<!-- Generator: Adobe Illustrator 17.1.0, SVG Export Plug-In . SVG Version: 6.00 Build 0)  -->
<!DOCTYPE svg PUBLIC "-//W3C//DTD SVG 1.1//EN" "http://www.w3.org/Graphics/SVG/1.1/DTD/svg11.dtd">
<svg version="1.1" xmlns="http://www.w3.org/2000/svg" xmlns:xlink="http://www.w3.org/1999/xlink" x="0px" y="0px" width="24px"
	 height="24px" viewBox="0 0 24 24" enable-background="new 0 0 24 24" xml:space="preserve">
<g id="Header">
	<g>
		<rect x="-618" y="-1336" fill="none" width="1400" height="3600"/>
	</g>
</g>
<g id="Label">
</g>
<g id="Icon">
	<g>
		<g>
			<rect fill="none" width="24" height="24"/>
		</g>
		<path d="M8,10H5V7H3v3H0v2h3v3h2v-3h3V10z M18,11c1.7,0,3-1.3,3-3c0-1.7-1.3-3-3-3c-0.3,0-0.6,0.1-0.9,0.1C17.7,6,18,6.9,18,8
			s-0.3,2-0.9,2.9C17.4,10.9,17.7,11,18,11z M13,11c1.7,0,3-1.3,3-3c0-1.7-1.3-3-3-3c-1.7,0-3,1.3-3,3C10,9.7,11.3,11,13,11z
			 M19.6,13.2c0.8,0.7,1.4,1.7,1.4,2.8v2h3v-2C24,14.5,21.6,13.5,19.6,13.2z M13,13c-2,0-6,1-6,3v2h12v-2C19,14,15,13,13,13z"/>
	</g>
</g>
<g id="Grid" display="none">
	<g display="inline">
	</g>
</g>
</svg>
