<?xml version="1.0" encoding="utf-8"?>
<!-- Generator: Adobe Illustrator 17.1.0, SVG Export Plug-In . SVG Version: 6.00 Build 0)  -->
<!DOCTYPE svg PUBLIC "-//W3C//DTD SVG 1.1//EN" "http://www.w3.org/Graphics/SVG/1.1/DTD/svg11.dtd">
<svg version="1.1" xmlns="http://www.w3.org/2000/svg" xmlns:xlink="http://www.w3.org/1999/xlink" x="0px" y="0px" width="24px"
	 height="24px" viewBox="0 0 24 24" enable-background="new 0 0 24 24" xml:space="preserve">
<g id="Header">
	<g>
		<rect x="-618" y="-2232" fill="none" width="1400" height="3600"/>
	</g>
</g>
<g id="Label">
</g>
<g id="Icon">
	<g>
		<rect fill="none" width="24" height="24"/>
		<path d="M11.5,22c1.1,0,2-0.9,2-2h-4C9.5,21.1,10.4,22,11.5,22z M18,16v-5.5c0-3.1-2.1-5.6-5-6.3V3.5C13,2.7,12.3,2,11.5,2
			C10.7,2,10,2.7,10,3.5v0.7c-2.9,0.7-5,3.2-5,6.3V16l-2,2v1h17v-1L18,16z M14,9.8l-2.8,3.4H14V15H9v-1.8l2.8-3.4H9V8h5V9.8z"/>
	</g>
</g>
<g id="Grid" display="none">
	<g display="inline">
	</g>
</g>
</svg>
