<?xml version="1.0" encoding="utf-8"?>
<!-- Generator: Adobe Illustrator 17.1.0, SVG Export Plug-In . SVG Version: 6.00 Build 0)  -->
<!DOCTYPE svg PUBLIC "-//W3C//DTD SVG 1.1//EN" "http://www.w3.org/Graphics/SVG/1.1/DTD/svg11.dtd">
<svg version="1.1" xmlns="http://www.w3.org/2000/svg" xmlns:xlink="http://www.w3.org/1999/xlink" x="0px" y="0px" width="24px"
	 height="24px" viewBox="0 0 24 24" enable-background="new 0 0 24 24" xml:space="preserve">
<g id="Header">
	<g>
		<rect x="-618" y="-1976" fill="none" width="1400" height="3600"/>
	</g>
</g>
<g id="Label">
</g>
<g id="Icon">
	<g>
		<rect fill="none" width="24" height="24"/>
		<path d="M11.5,22c1.1,0,2-0.9,2-2h-4C9.5,21.1,10.4,22,11.5,22z M18,10.5c0-3.1-2.1-5.6-5-6.3V3.5C13,2.7,12.3,2,11.5,2
			C10.7,2,10,2.7,10,3.5v0.7C9.5,4.3,9,4.5,8.6,4.7l9.4,9.4V10.5z M17.7,19l2,2l1.3-1.3L4.3,3L3,4.3l2.9,2.9C5.3,8.2,5,9.3,5,10.5
			V16l-2,2v1H17.7z"/>
	</g>
</g>
<g id="Grid" display="none">
	<g display="inline">
	</g>
</g>
</svg>
