<?xml version="1.0" encoding="utf-8"?>
<!-- Generator: Adobe Illustrator 17.1.0, SVG Export Plug-In . SVG Version: 6.00 Build 0)  -->
<!DOCTYPE svg PUBLIC "-//W3C//DTD SVG 1.1//EN" "http://www.w3.org/Graphics/SVG/1.1/DTD/svg11.dtd">
<svg version="1.1" xmlns="http://www.w3.org/2000/svg" xmlns:xlink="http://www.w3.org/1999/xlink" x="0px" y="0px" width="24px"
	 height="24px" viewBox="0 0 24 24" enable-background="new 0 0 24 24" xml:space="preserve">
<g id="Header">
	<g>
		<rect x="-618" y="-2360" fill="none" width="1400" height="3600"/>
	</g>
</g>
<g id="Label">
</g>
<g id="Icon">
	<g>
		<g>
			<rect fill="none" width="24" height="24"/>
		</g>
		<path d="M3,5v6h5L7,7l4,1V3H5C3.9,3,3,3.9,3,5z M8,13H3v6c0,1.1,0.9,2,2,2h6v-5l-4,1L8,13z M17,17l-4-1v5h6c1.1,0,2-0.9,2-2v-6
			l-5,0L17,17z M19,3h-6v5l4-1l-1,4h5V5C21,3.9,20.1,3,19,3z"/>
	</g>
</g>
<g id="Grid" display="none">
	<g display="inline">
	</g>
</g>
</svg>
