<?xml version="1.0" encoding="utf-8"?>
<!-- Generator: Adobe Illustrator 17.1.0, SVG Export Plug-In . SVG Version: 6.00 Build 0)  -->
<!DOCTYPE svg PUBLIC "-//W3C//DTD SVG 1.1//EN" "http://www.w3.org/Graphics/SVG/1.1/DTD/svg11.dtd">
<svg version="1.1" xmlns="http://www.w3.org/2000/svg" xmlns:xlink="http://www.w3.org/1999/xlink" x="0px" y="0px" width="24px"
	 height="24px" viewBox="0 0 24 24" enable-background="new 0 0 24 24" xml:space="preserve">
<g id="Header">
	<g>
		<rect x="-618" y="-3000" fill="none" width="1400" height="3600"/>
	</g>
</g>
<g id="Label">
</g>
<g id="Icon">
	<g>
		<path d="M12,5.9c1.2,0,2.1,0.9,2.1,2.1s-0.9,2.1-2.1,2.1S9.9,9.2,9.9,8S10.8,5.9,12,5.9 M12,14.9c3,0,6.1,1.5,6.1,2.1v1.1H5.9V17
			C5.9,16.4,9,14.9,12,14.9 M12,4C9.8,4,8,5.8,8,8c0,2.2,1.8,4,4,4c2.2,0,4-1.8,4-4C16,5.8,14.2,4,12,4L12,4z M12,13
			c-2.7,0-8,1.3-8,4v3h16v-3C20,14.3,14.7,13,12,13L12,13z"/>
		<rect fill="none" width="24" height="24"/>
	</g>
</g>
<g id="Grid" display="none">
	<g display="inline">
	</g>
</g>
</svg>
