<?xml version="1.0" encoding="utf-8"?>
<!-- Generator: Adobe Illustrator 17.1.0, SVG Export Plug-In . SVG Version: 6.00 Build 0)  -->
<!DOCTYPE svg PUBLIC "-//W3C//DTD SVG 1.1//EN" "http://www.w3.org/Graphics/SVG/1.1/DTD/svg11.dtd">
<svg version="1.1" xmlns="http://www.w3.org/2000/svg" xmlns:xlink="http://www.w3.org/1999/xlink" x="0px" y="0px" width="24px"
	 height="24px" viewBox="0 0 24 24" enable-background="new 0 0 24 24" xml:space="preserve">
<g id="Header">
	<g>
		<rect x="-618" y="-824" fill="none" width="1400" height="3600"/>
	</g>
</g>
<g id="Label">
</g>
<g id="Icon">
	<g>
		<g>
			<path d="M20,2H4C2.9,2,2,2.9,2,4l0,16c0,1.1,0.9,2,2,2h16c1.1,0,2-0.9,2-2V4C22,2.9,21.1,2,20,2z M16,11h-3c0,0,0,3.8,0,3.9
				c0,0.7,0.1,1.1,1.1,1.1c0.9,0,1.9,0,1.9,0v3c0,0-1,0.1-2.1,0.1c-2.6,0-3.9-1.6-3.9-3.4c0-1.2,0-4.7,0-4.7H8V8.2
				c2.4-0.2,2.6-2,2.8-3.2H13v3h3V11z"/>
		</g>
		<g>
			<rect fill="none" width="24" height="24"/>
		</g>
	</g>
</g>
<g id="Grid" display="none">
	<g display="inline">
	</g>
</g>
</svg>
