<?xml version="1.0" encoding="utf-8"?>
<!-- Generator: Adobe Illustrator 17.1.0, SVG Export Plug-In . SVG Version: 6.00 Build 0)  -->
<!DOCTYPE svg PUBLIC "-//W3C//DTD SVG 1.1//EN" "http://www.w3.org/Graphics/SVG/1.1/DTD/svg11.dtd">
<svg version="1.1" xmlns="http://www.w3.org/2000/svg" xmlns:xlink="http://www.w3.org/1999/xlink" x="0px" y="0px" width="24px"
	 height="24px" viewBox="0 0 24 24" enable-background="new 0 0 24 24" xml:space="preserve">
<g id="Header">
	<g>
		<rect x="-618" y="-696" fill="none" width="1400" height="3600"/>
	</g>
</g>
<g id="Label">
</g>
<g id="Icon">
	<g>
		<g>
			<path d="M20,2H4C2.9,2,2,2.9,2,4l0,16c0,1.1,0.9,2,2,2h16c1.1,0,2-0.9,2-2V4C22,2.9,21.1,2,20,2z M13,16.2
				c-0.8,0-1.6-0.3-2.1-0.9l-1,3.2l-0.1,0.2l0,0c-0.2,0.3-0.5,0.5-0.9,0.5c-0.6,0-1.1-0.5-1.1-1.1c0-0.1,0-0.1,0-0.1l0,0l0.1-0.2
				l1.8-5.6c0,0-0.2-0.6-0.2-1.5c0-1.7,0.9-2.2,1.7-2.2c0.7,0,1.4,0.3,1.4,1.3c0,1.3-0.9,2-0.9,3c0,0.7,0.6,1.3,1.3,1.3
				c2.3,0,3.2-1.8,3.2-3.4c0-2.2-1.9-4-4.2-4c-2.3,0-4.2,1.8-4.2,4c0,0.7,0.2,1.3,0.5,1.9c0.1,0.2,0.1,0.3,0.1,0.5c0,0.6-0.4,1-1,1
				c-0.4,0-0.7-0.2-0.9-0.5c-0.5-0.9-0.8-1.9-0.8-3c0-3.3,2.8-6,6.2-6c3.4,0,6.2,2.7,6.2,6C18.2,13.4,16.6,16.2,13,16.2z"/>
		</g>
		<g>
			<rect fill="none" width="24" height="24"/>
		</g>
	</g>
</g>
<g id="Grid" display="none">
	<g display="inline">
	</g>
</g>
</svg>
