<?xml version="1.0" encoding="utf-8"?>
<!-- Generator: Adobe Illustrator 17.1.0, SVG Export Plug-In . SVG Version: 6.00 Build 0)  -->
<!DOCTYPE svg PUBLIC "-//W3C//DTD SVG 1.1//EN" "http://www.w3.org/Graphics/SVG/1.1/DTD/svg11.dtd">
<svg version="1.1" id="Layer_1" xmlns="http://www.w3.org/2000/svg" xmlns:xlink="http://www.w3.org/1999/xlink" x="0px" y="0px"
	 width="24px" height="24px" viewBox="0 0 24 24" enable-background="new 0 0 24 24" xml:space="preserve">
<g id="Header">
	<g>
		<rect x="-618" y="-1208" fill="none" width="1400" height="3600"/>
	</g>
</g>
<g id="Label">
</g>
<g id="Icon">
	<g>
		<rect fill="none" width="24" height="24"/>
		<path d="M18,16.1c-0.8,0-1.5,0.3-2,0.8l-7.1-4.2C9,12.5,9,12.2,9,12s0-0.5-0.1-0.7L16,7.2C16.5,7.7,17.2,8,18,8c1.7,0,3-1.3,3-3
			s-1.3-3-3-3s-3,1.3-3,3c0,0.2,0,0.5,0.1,0.7L8,9.8C7.5,9.3,6.8,9,6,9c-1.7,0-2.9,1.2-2.9,2.9c0,1.7,1.3,3,3,3c0.8,0,1.5-0.3,2-0.8
			l7.1,4.2c-0.1,0.3-0.1,0.5-0.1,0.7c0,1.6,1.3,2.9,2.9,2.9s2.9-1.3,2.9-2.9S19.6,16.1,18,16.1z"/>
	</g>
</g>
<g id="Grid" display="none">
</g>
</svg>
