<?xml version="1.0" encoding="utf-8"?>
<!-- Generator: Adobe Illustrator 17.1.0, SVG Export Plug-In . SVG Version: 6.00 Build 0)  -->
<!DOCTYPE svg PUBLIC "-//W3C//DTD SVG 1.1//EN" "http://www.w3.org/Graphics/SVG/1.1/DTD/svg11.dtd">
<svg version="1.1" id="Layer_1" xmlns="http://www.w3.org/2000/svg" xmlns:xlink="http://www.w3.org/1999/xlink" x="0px" y="0px"
	 width="48px" height="48px" viewBox="0 0 48 48" enable-background="new 0 0 48 48" xml:space="preserve">
<g id="Header">
	<g>
		<rect x="-838" y="-1208" fill="none" width="1400" height="3600"/>
	</g>
</g>
<g id="Label">
</g>
<g id="Icon">
	<g>
		<rect fill="none" width="48" height="48"/>
		<path d="M36,32.2c-1.5,0-2.9,0.5-3.9,1.5l-14.3-8.3c0.1-0.5,0.2-0.9,0.2-1.4s-0.1-0.9-0.2-1.4l14.1-8.2c1.1,1,2.5,1.6,4.1,1.6
			c3.3,0,6-2.7,6-6s-2.7-6-6-6s-6,2.7-6,6c0,0.5,0.1,0.9,0.2,1.4l-14.1,8.2C15,18.6,13.6,18,12,18c-3.3,0-5.9,2.7-5.9,6s2.7,6,6,6
			c1.6,0,3-0.6,4.1-1.6l14.2,8.3c-0.1,0.4-0.2,0.8-0.2,1.3c0,3.2,2.6,5.8,5.8,5.8s5.8-2.6,5.8-5.8S39.2,32.2,36,32.2z"/>
	</g>
</g>
<g id="Grid" display="none">
	<g display="inline">
		<line fill="none" stroke="#00E5FF" stroke-width="0.1" stroke-miterlimit="10" x1="42" y1="-1208" x2="42" y2="2344"/>
	</g>
</g>
</svg>
